<?xml version="1.0" encoding="utf-8"?>
<!-- Generator: Adobe Illustrator 16.0.0, SVG Export Plug-In . SVG Version: 6.00 Build 0)  -->
<!DOCTYPE svg PUBLIC "-//W3C//DTD SVG 1.1//EN" "http://www.w3.org/Graphics/SVG/1.1/DTD/svg11.dtd">
<svg version="1.1" id="圖層_1" xmlns="http://www.w3.org/2000/svg" xmlns:xlink="http://www.w3.org/1999/xlink" x="0px" y="0px"
	 width="75px" height="75px" viewBox="0 0 75 75" enable-background="new 0 0 75 75" xml:space="preserve">
<path fill="none" stroke="#1E284B" stroke-width="5" stroke-linecap="round" stroke-linejoin="round" stroke-miterlimit="10" d="
	M49.383,34.094"/>
<g>
	<g>
		<path fill="#1E284B" d="M43.9,67.116c-0.941,0-1.827-0.581-2.172-1.517l-17.978-48.9L4.467,65.648
			c-0.469,1.19-1.812,1.772-3.001,1.306c-1.189-0.469-1.773-1.813-1.305-3.001L21.672,9.35c0.352-0.893,1.174-1.479,2.179-1.466
			c0.96,0.012,1.813,0.614,2.145,1.516l20.076,54.604c0.441,1.199-0.174,2.529-1.373,2.97C44.436,67.069,44.166,67.116,43.9,67.116z
			"/>
		<path fill="#1E284B" d="M37.127,48.69H9.573c-1.278,0-2.313-1.036-2.313-2.314c0-1.277,1.036-2.313,2.313-2.313h27.554
			c1.277,0,2.313,1.036,2.313,2.313C39.44,47.654,38.404,48.69,37.127,48.69z"/>
	</g>
	<g>
		<path fill="#1E284B" d="M72.5,67.116c-1.381,0-2.5-1.119-2.5-2.5V38.178c0-8.154-5.465-9.055-5.698-9.089
			c-8.753-1.247-12.597,3.586-12.755,3.792c-0.838,1.086-2.398,1.306-3.494,0.481c-1.094-0.825-1.328-2.366-0.515-3.47
			c0.224-0.305,5.638-7.441,17.482-5.752C68.479,24.651,75,28.239,75,38.178v26.438C75,65.997,73.881,67.116,72.5,67.116z"/>
		<path fill="#1E284B" d="M60.024,64.616c-7.7,0-13.965-5.742-13.965-12.8s6.265-12.8,13.965-12.8s13.966,5.742,13.966,12.8
			S67.725,64.616,60.024,64.616z M60.024,43.644c-5.149,0-9.337,3.666-9.337,8.173c0,4.506,4.188,8.172,9.337,8.172
			c5.148,0,9.338-3.666,9.338-8.172C69.362,47.31,65.173,43.644,60.024,43.644z"/>
	</g>
</g>
</svg>
