<?xml version="1.0" encoding="utf-8"?>
<!-- Generator: Adobe Illustrator 16.0.0, SVG Export Plug-In . SVG Version: 6.00 Build 0)  -->
<!DOCTYPE svg PUBLIC "-//W3C//DTD SVG 1.1//EN" "http://www.w3.org/Graphics/SVG/1.1/DTD/svg11.dtd">
<svg version="1.1" id="圖層_1" xmlns="http://www.w3.org/2000/svg" xmlns:xlink="http://www.w3.org/1999/xlink" x="0px" y="0px"
	 width="75px" height="75px" viewBox="0 0 75 75" enable-background="new 0 0 75 75" xml:space="preserve">
<g>
	<path fill="#1E284B" d="M71.054,13.307c0,0-17.534-25.115-42.17-3.166c0,0-6.42,6.568-4.33,16.125c0,0-0.746,3.135-1.941,4.031
		l-5.524,6.869c0,0-1.343,2.646,1.344,3.712l4.927,2.111c0,0,1.045,2.538-1.492,3.286c0,0-1.344,1.043,0.149,1.94l2.239,1.194
		l-2.688,1.643c0,0,0.374,3.512,2.688,4.18c0,0-3.211,7.319,2.687,9.862c0,0,11.035,0.637,10.133,8.762h26.172
		c0,0-6.721-15.928,3.73-25.258C66.978,48.599,81.887,28.008,71.054,13.307z"/>
	<g>
		<path fill="#1E284B" d="M15.775,55.674c-0.47,0-0.938-0.188-1.281-0.561c-4.492-4.85-1.926-9.808,0.058-11.753
			c0.689-0.674,1.795-0.664,2.47,0.026c0.672,0.687,0.664,1.786-0.019,2.462c-0.55,0.554-3.111,3.476,0.053,6.894
			c0.655,0.707,0.612,1.812-0.095,2.467C16.625,55.521,16.199,55.674,15.775,55.674z"/>
		<path fill="#1E284B" d="M10.989,58.392c-0.442,0-0.886-0.167-1.226-0.502C3.187,51.401,6.827,43.486,9.67,40.206
			c0.632-0.728,1.735-0.806,2.463-0.175c0.727,0.631,0.807,1.731,0.179,2.459c-0.254,0.296-5.968,7.118-0.097,12.912
			c0.688,0.678,0.693,1.782,0.017,2.469C11.89,58.218,11.44,58.392,10.989,58.392z"/>
		<path fill="#1E284B" d="M6.328,62.096c-0.483,0-0.964-0.198-1.308-0.588C-6.255,48.762,4.971,37.117,5.086,37
			c0.678-0.687,1.782-0.691,2.468-0.015c0.687,0.676,0.693,1.778,0.019,2.465c-0.387,0.396-9.018,9.477,0.063,19.744
			c0.639,0.722,0.571,1.828-0.151,2.464C7.152,61.952,6.739,62.096,6.328,62.096z"/>
	</g>
</g>
</svg>
