<?xml version="1.0" encoding="utf-8"?>
<!-- Generator: Adobe Illustrator 16.0.0, SVG Export Plug-In . SVG Version: 6.00 Build 0)  -->
<!DOCTYPE svg PUBLIC "-//W3C//DTD SVG 1.1//EN" "http://www.w3.org/Graphics/SVG/1.1/DTD/svg11.dtd">
<svg version="1.1" id="圖層_1" xmlns="http://www.w3.org/2000/svg" xmlns:xlink="http://www.w3.org/1999/xlink" x="0px" y="0px"
	 width="75px" height="75px" viewBox="0 0 75 75" enable-background="new 0 0 75 75" xml:space="preserve">
<g>
	<g>
		<g>
			<path fill="#1E284B" d="M64.647,97.243c0,0-18.175-16.676-37.249-3.173c0,0-8.401,9.045-4.339,16.159
				c0,0-0.748,3.141-1.946,4.039l-5.536,6.884c0,0-1.345,2.652,1.347,3.72l4.938,2.116c0,0-1.75,2.543-4.292,3.293
				c0,0-1.347,1.045,0.15,1.944l5.041,1.197l-5.479,3.646c0,0,3.291,0.388,5.609,1.057c0,0-3.349,8.467,2.562,11.016
				c0,0,11.058,0.638,10.154,8.779h21.218c0,0-4.84-8.709,2.842-22.156C59.666,135.764,72.945,104.783,64.647,97.243z"/>
			<g>
				<path fill="#1E284B" d="M12.348,143.766c-0.595,0-1.187-0.238-1.622-0.711c-5.688-6.14-2.439-12.417,0.074-14.881
					c0.873-0.853,2.272-0.84,3.127,0.033c0.851,0.87,0.84,2.263-0.023,3.118c-0.696,0.701-3.94,4.401,0.066,8.729
					c0.83,0.895,0.776,2.294-0.12,3.124C13.424,143.572,12.886,143.766,12.348,143.766z"/>
				<path fill="#1E284B" d="M6.288,147.207c-0.56,0-1.122-0.212-1.552-0.636c-8.326-8.216-3.717-18.237-0.118-22.39
					c0.8-0.923,2.198-1.021,3.12-0.223c0.92,0.8,1.021,2.193,0.226,3.114c-0.322,0.374-7.557,9.012-0.123,16.349
					c0.871,0.858,0.878,2.257,0.021,3.126C7.429,146.987,6.86,147.207,6.288,147.207z"/>
				<path fill="#1E284B" d="M0.387,151.897c-0.612,0-1.22-0.252-1.656-0.745c-14.277-16.139-0.063-30.883,0.083-31.031
					c0.858-0.87,2.257-0.876,3.125-0.019c0.869,0.855,0.877,2.252,0.023,3.12c-0.49,0.503-11.418,12,0.08,25.001
					c0.81,0.913,0.723,2.314-0.191,3.119C1.431,151.715,0.908,151.897,0.387,151.897z"/>
			</g>
		</g>
		<path fill="#1E284B" d="M24.632,97.827c0,0,4.386-11.08,22.425-9.911c0,0,19.053,2.872,20.132,15.007"/>
	</g>
	<path fill="#1E284B" d="M17.282,137.068c0,0-0.391-0.428,0.188-0.725l5.291-2.921"/>
</g>
<image overflow="visible" width="512" height="512" xlink:href="../../../../../Downloads/4951869.png"  transform="matrix(-0.1465 0 0 0.1465 -25.0225 4.1011)">
</image>
<g>
	<path fill="#1E284B" d="M46.986,0.001l-14.87,16.826c0,0-2.608,4.435,2.87,6.783c0,0,10.564,2.87,7.173,10.043
		c0,0-5.478,6.253-0.131,9.126l2.479,1.901l-2.087,3.189c0,0-1.565,2.349,1.304,2.739c0,0,8.87,2.87,4.826,12.783
		c0,0-1.956,9.286,6,11.348c0,0,4.044,1.565,14.349-3c0,0,2.087-1.472,1.956-5.301V6.392c0,0,1.014-6.391-6.405-6.391H46.986z"/>
	<g>
		<path fill="#1E284B" d="M32.076,55.382c-0.833,0-1.662-0.333-2.271-0.995c-7.967-8.601-3.417-17.395,0.103-20.846
			c1.221-1.194,3.183-1.177,4.38,0.046c1.191,1.219,1.177,3.169-0.032,4.368c-0.976,0.982-5.52,6.166,0.093,12.227
			c1.163,1.253,1.087,3.213-0.168,4.376C33.583,55.111,32.83,55.382,32.076,55.382z"/>
		<path fill="#1E284B" d="M23.587,60.203c-0.784,0-1.572-0.297-2.174-0.891C9.75,47.804,16.207,33.765,21.248,27.949
			c1.121-1.293,3.08-1.431,4.371-0.312c1.289,1.12,1.431,3.072,0.316,4.362c-0.45,0.524-10.587,12.624-0.172,22.901
			c1.219,1.203,1.229,3.162,0.028,4.379C25.187,59.896,24.388,60.203,23.587,60.203z"/>
		<path fill="#1E284B" d="M15.321,66.773c-0.857,0-1.709-0.353-2.319-1.044c-20-22.607-0.088-43.261,0.116-43.469
			c1.202-1.219,3.161-1.227,4.378-0.026c1.218,1.198,1.229,3.155,0.033,4.371c-0.687,0.705-15.996,16.81,0.11,35.022
			c1.134,1.279,1.014,3.242-0.267,4.369C16.783,66.518,16.051,66.773,15.321,66.773z"/>
	</g>
</g>
</svg>
