<?xml version="1.0" encoding="utf-8"?>
<!-- Generator: Adobe Illustrator 16.0.0, SVG Export Plug-In . SVG Version: 6.00 Build 0)  -->
<!DOCTYPE svg PUBLIC "-//W3C//DTD SVG 1.1//EN" "http://www.w3.org/Graphics/SVG/1.1/DTD/svg11.dtd">
<svg version="1.1" id="圖層_1" xmlns="http://www.w3.org/2000/svg" xmlns:xlink="http://www.w3.org/1999/xlink" x="0px" y="0px"
	 width="75px" height="75px" viewBox="0 0 75 75" enable-background="new 0 0 75 75" xml:space="preserve">
<g>
	<g>
		<path fill="#1E284B" d="M9.131,23.006l0.938-0.467l0.963-0.386l0.504-0.181l0.481-0.142l0.986-0.264l1.053-0.224l1.054-0.142
			l1.076-0.102l1.099-0.021l1.146,0.021l1.1,0.102l1.077,0.142l1.031,0.224l1.031,0.264l0.963,0.322l0.962,0.386l0.894,0.467
			l0.895,0.468l0.847,0.547l0.801,0.589l0.756,0.629l0.711,0.648l0.663,0.711l0.621,0.75l0.572,0.791l0.48,0.71l0.414,0.751
			l0.344,0.751l0.297,0.81l0.252,0.793l0.183,0.83l0.115,0.853l0.069,0.892l0.045,0.791l0.023,0.69l-0.068,0.711l-0.069,0.688
			l-0.16,0.711l-0.16,0.668l-0.229,0.691l-0.252,0.648l-0.344,0.669l-0.297,0.608l-0.367,0.629l-0.39,0.589l-0.457,0.609
			l-0.459,0.566l-0.504,0.569l-0.526,0.526l-0.595,0.547l5.061,8.48l-13.195-4.688l-3.277,0.285l-1.099-0.063l-0.252-0.039
			l-0.275-0.02l-0.549-0.039l-1.054-0.165l-1.053-0.204l-0.229-0.079l-0.116-0.04l-0.136-0.02l-0.504-0.145l-0.481-0.162
			l-0.504-0.141l-0.963-0.386l-0.457-0.224l-0.48-0.203l-0.093-0.08l-0.045-0.039l-0.068-0.023l-0.229-0.119L8.26,47.086L7.848,46.8
			l-0.092-0.079l-0.046-0.042l-0.068-0.021l-0.229-0.122l-0.184-0.161l-0.091-0.082l-0.047-0.04l-0.069-0.02L6.61,45.95
			l-0.367-0.306l-0.39-0.283L5.83,45.299l-0.045-0.04l-0.092-0.082l-0.181-0.161l-0.368-0.326l-0.32-0.365l-0.022-0.06l-0.045-0.039
			l-0.092-0.082L4.48,43.981l-0.139-0.204l-0.022-0.059l-0.047-0.043L4.18,43.597l-0.32-0.365l-0.275-0.386L3.288,42.48
			l-0.229-0.428l-0.252-0.405l-0.229-0.425l-0.229-0.407L2.167,40.37l-0.184-0.427l-0.161-0.445l-0.023-0.121l-0.045-0.103
			l-0.09-0.201L1.614,38.83l-0.022-0.125l-0.045-0.099l-0.113-0.448l-0.184-0.932l-0.045-0.487l-0.047-0.467l-0.021-0.487
			l-0.048-0.467v-0.791l0.116-0.892l0.137-0.853l0.206-0.83l0.229-0.793l0.32-0.81L2.44,29.6l0.414-0.751l0.435-0.71l0.572-0.791
			l0.62-0.75l0.663-0.711l0.368-0.346l0.342-0.303l0.756-0.629l0.802-0.589l0.848-0.547L9.131,23.006L9.131,23.006 M17.285,23.313
			l-0.915,0.02l-0.917,0.079l-0.87,0.122l-0.895,0.184l-0.847,0.224l-0.414,0.122l-0.433,0.161l-0.803,0.346l-0.803,0.386
			L9.656,25.34l-0.709,0.468l-0.664,0.464l-0.664,0.55l-0.574,0.547l-0.572,0.608l-0.527,0.629l-0.483,0.669l-0.343,0.589
			l-0.344,0.608L4.48,31.101l-0.253,0.648l-0.205,0.648L3.86,33.089l-0.113,0.708l-0.094,0.73l-0.045,0.791l0.069,0.813l0.092,0.813
			l0.159,0.771l0.184,0.771l0.275,0.73l0.297,0.729l0.116,0.164l0.09,0.181l0.184,0.365l0.115,0.162l0.092,0.184l0.181,0.365
			l0.139,0.142l0.113,0.162l0.231,0.325l0.275,0.304l0.252,0.325l0.297,0.283l0.274,0.303l0.574,0.569l0.343,0.244l0.321,0.264
			l0.664,0.486l0.367,0.224l0.342,0.244l0.732,0.425l0.414,0.165l0.207,0.078l0.183,0.103l0.412,0.161l0.391,0.162l0.433,0.121
			l0.414,0.145l0.436,0.122l0.411,0.122l0.459,0.079l0.229,0.042h0.068l0.045,0.02l0.093,0.041l0.87,0.141l0.917,0.082l0.915,0.061
			l3.164-0.324l0.411-0.102l7.468,2.676l-2.818-4.604l0.779-0.586l0.574-0.448l0.502-0.464l0.481-0.487l0.437-0.487l0.435-0.529
			l0.367-0.527l0.365-0.566l0.3-0.569l0.32-0.605l0.252-0.592l0.229-0.606l0.16-0.609l0.16-0.648l0.091-0.629l0.071-0.648v-0.631
			l-0.048-0.791l-0.159-1.438l-0.161-0.691l-0.206-0.648l-0.253-0.648l-0.297-0.629l-0.343-0.608l-0.391-0.589l-0.458-0.669
			l-0.525-0.629l-0.551-0.608l-0.619-0.547l-0.617-0.55l-0.688-0.464l-0.71-0.468l-0.78-0.385l-0.756-0.386l-0.802-0.346
			l-0.824-0.283l-0.869-0.224l-0.873-0.184l-0.916-0.122l-0.917-0.079L17.285,23.313L17.285,23.313z"/>
		<path fill="#1E284B" d="M33.757,55.007c-0.122,0-0.245-0.02-0.364-0.061l-12.972-4.609l-3.041,0.266
			c-0.052,0.004-0.104,0.006-0.156,0.002l-2.192-0.162l-2.235-0.385c-0.05-0.01-0.1-0.023-0.148-0.041l-0.229-0.078
			c-0.048-0.008-0.149-0.029-0.196-0.043l-1.484-0.445l-2.032-0.859c-0.101-0.043-0.195-0.101-0.278-0.172l0.002-0.002
			c-0.002-0.002-0.004-0.002-0.005-0.002l-0.695-0.381l-0.5-0.341c-0.015-0.011-0.051-0.04-0.088-0.069
			c-0.003-0.002-0.006-0.004-0.009-0.005l-0.229-0.122c-0.075-0.039-0.144-0.088-0.208-0.143l-0.184-0.162l0.001-0.002
			c-0.042-0.02-0.079-0.041-0.108-0.063l-1.189-0.887c-0.099-0.072-0.185-0.16-0.253-0.26l-0.956-0.94
			c-0.026-0.029-0.05-0.061-0.072-0.092L3.76,44.797c-0.068-0.061-0.128-0.128-0.179-0.203l-0.135-0.198
			c-0.038-0.035-0.071-0.067-0.084-0.082l-0.918-1.146c-0.044-0.054-0.082-0.111-0.115-0.172l-1.346-2.622l-0.185-0.504
			c-0.021-0.056-0.036-0.113-0.047-0.172l-0.081-0.177c-0.034-0.076-0.06-0.154-0.076-0.236l-0.048-0.243
			c-0.027-0.06-0.039-0.104-0.055-0.168l-0.31-1.436l-0.176-2.009L0,34.527l0.268-1.917l0.463-1.753l0.721-1.711l0.909-1.575
			l1.281-1.666l1.492-1.482l1.633-1.279l0.903-0.584l1.913-0.994l2.127-0.778l2.12-0.507l2.253-0.263l1.182-0.024l1.185,0.02
			l2.299,0.253l2.189,0.512l2.06,0.752l1.888,0.979l1.789,1.224l1.556,1.351l1.389,1.572l1.115,1.585l0.845,1.657l0.598,1.727
			l0.208,0.926l0.252,2.706l0.024,0.718l-0.143,1.544l-0.344,1.523l-0.525,1.479l-1.083,2.061l-0.917,1.304l-1.018,1.203
			l-0.55,0.553l4.609,7.722c0.235,0.395,0.198,0.893-0.092,1.248C34.387,54.866,34.077,55.007,33.757,55.007z M20.562,48.146
			c0.124,0,0.247,0.021,0.364,0.063l10.35,3.676l-3.513-5.887c-0.264-0.442-0.181-1.009,0.198-1.357l1.088-1.042l1.32-1.629
			l0.686-1.112l0.819-1.771l0.502-1.915l0.115-1.265l-0.247-2.978l-0.394-1.438l-0.593-1.437l-0.807-1.306l-1.129-1.456
			l-1.268-1.249l-1.469-1.146l-0.792-0.509l-1.703-0.885l-1.766-0.642l-1.947-0.455l-2.046-0.224l-1.064-0.015l-1.06,0.02
			l-2.004,0.234L11.4,23.177l-0.928,0.372l-1.698,0.883l-1.52,1.055L5.888,26.68l-1.189,1.36l-0.917,1.376l-0.697,1.388
			l-0.493,1.452l-0.314,1.553l-0.111,0.859l0.166,2.458l0.25,1.136c0.034,0.087,0.07,0.189,0.081,0.249l0.083,0.317
			c0.036,0.079,0.107,0.264,0.123,0.35l0.658,1.512l1.417,2.128C4.971,42.842,5,42.868,5.004,42.871
			c0.106,0.097,0.226,0.243,0.296,0.383l0.083,0.074c0.079,0.069,0.195,0.192,0.29,0.315l0.744,0.721
			c0.053,0.048,0.125,0.122,0.196,0.204l0.923,0.7c0.097,0.044,0.192,0.099,0.259,0.155l-0.566,0.951l0.694-0.8l0.005,0.003
			l0.019-0.021l0.148,0.11c0.127,0.053,0.26,0.127,0.347,0.207l0.938,0.586c0.118,0.05,0.249,0.121,0.33,0.193l0,0l3.052,1.135
			c0.086,0.015,0.203,0.037,0.249,0.053l0.276,0.096l3.071,0.445l0.91,0.047l3.202-0.279C20.499,48.146,20.53,48.146,20.562,48.146z
			 M28.328,50.646c-0.123,0-0.247-0.021-0.367-0.063l-7.159-2.566L20.71,48.04c-0.049,0.012-0.101,0.021-0.151,0.025l-3.164,0.323
			c-0.06,0.007-0.119,0.008-0.181,0.004l-1.859-0.144l-0.947-0.152c-0.078-0.012-0.154-0.033-0.228-0.063c0,0-0.001,0-0.002-0.001
			l-1.629-0.388l-1.754-0.623c-0.046-0.018-0.09-0.039-0.134-0.063l-0.674-0.285c-0.05-0.02-0.099-0.043-0.145-0.069L8.38,45.7
			l-1.392-1.036C6.94,44.63,6.895,44.591,6.853,44.55l-1.129-1.141c-0.04-0.037-0.076-0.078-0.11-0.121l-0.926-1.162
			c-0.08-0.082-0.146-0.176-0.197-0.277l-0.3-0.564c-0.032-0.045-0.06-0.092-0.085-0.141l-0.308-0.572
			c-0.048-0.068-0.087-0.141-0.119-0.217l-0.583-1.487l-0.39-1.704l-0.18-1.752c-0.005-0.052-0.006-0.104-0.002-0.155l0.145-1.597
			l0.294-1.509l0.505-1.445l1.056-1.978l1.117-1.449l1.229-1.244l1.456-1.118l0.734-0.484l1.663-0.843l1.813-0.691l1.83-0.43
			l1.913-0.219l0.985-0.024l2.019,0.104l1.919,0.325l0.917,0.234l0.906,0.308l2.466,1.17l1.524,1.005
			c0.04,0.027,0.079,0.057,0.115,0.09l1.233,1.093l1.191,1.355l1.304,2.03l0.616,1.415l0.413,1.488l0.233,2.41l0.002,0.697
			l-0.173,1.433l-0.344,1.379l-0.533,1.348l-1.072,1.905l-0.875,1.157L27.6,44.718l-0.647,0.51l2.303,3.764
			c0.241,0.393,0.208,0.896-0.083,1.254C28.961,50.503,28.648,50.646,28.328,50.646z M20.859,45.794
			c0.125,0,0.249,0.021,0.367,0.064l4.563,1.635l-1.208-1.973c-0.292-0.478-0.174-1.1,0.273-1.437l1.771-1.428l1.25-1.396
			l0.911-1.479l0.534-1.117l0.338-1.064l0.227-1.156l0.066-0.612l-0.053-1.237l-0.154-1.386l-0.322-1.13l-0.498-1.141l-1.105-1.718
			l-0.985-1.123l-1.098-0.964l-1.328-0.885l-2.17-1.024l-1.535-0.453l-1.66-0.281l-1.781-0.09l-1.717,0.095l-1.639,0.289
			l-1.533,0.46l-2.211,1.059l-1.257,0.861l-1.11,0.992L6.78,29.304l-0.719,1.105l-0.596,1.154l-0.407,1.163l-0.326,1.939
			l-0.035,0.635l0.152,1.521l0.32,1.41l0.518,1.248c0.032,0.045,0.06,0.093,0.085,0.142l0.303,0.564
			c0.032,0.046,0.062,0.093,0.086,0.144l0.216,0.416c0.042,0.043,0.079,0.088,0.113,0.137l1.359,1.596l1.122,0.966l1.314,0.909
			l1.112,0.54c0.048,0.018,0.095,0.04,0.141,0.065l0.87,0.369l2.106,0.557c0.126,0.013,0.266,0.041,0.365,0.084l1.587,0.196
			l0.797,0.052l3.333-0.39C20.684,45.806,20.771,45.794,20.859,45.794z"/>
	</g>
	<g>
		<circle fill="#1E284B" cx="62.168" cy="17.401" r="2.519"/>
		<path fill="#1E284B" d="M62.17,21.01c-1.99,0-3.608-1.619-3.608-3.608s1.618-3.608,3.608-3.608c1.988,0,3.605,1.619,3.605,3.608
			S64.158,21.01,62.17,21.01z M62.17,15.968c-0.79,0-1.434,0.643-1.434,1.433s0.644,1.433,1.434,1.433
			c0.789,0,1.43-0.643,1.43-1.433S62.959,15.968,62.17,15.968z"/>
	</g>
	<g>
		<path fill="#1E284B" d="M38.033,31.063l-0.936,3.075c0,0,9.011,0,11.955,0c0,2.822,0,10.329,0,10.329s14.213,0,17.906,0
			c-0.531,2.979-3.075,8.442-14.438,10.91l-1.88,0.412v1.921c0,1.988,0.233,8.686,3.183,11.314l-0.246-0.257
			c0.133,0.16,3.312,3.896,9.707,4.808l0.168,0.024h10.177v-4.769c0,0-9.29,0-9.766,0c-4.422-0.663-6.55-3.031-6.64-3.132
			l-0.101-0.114l-0.132-0.122c-0.753-0.675-1.308-3.389-1.496-6.003c14.896-4.032,16.364-13.45,16.364-16.665
			c0-0.664-0.057-1.064-0.061-1.086l-0.317-2.011c0,0-14.072,0-17.662,0c0-2.821,0-10.329,0-10.329s-7.043,0-10.293,0
			c1.5-4.939,8.072-26.586,8.072-26.586l-4.561-1.382L38.033,31.063z"/>
		<path fill="#1E284B" d="M73.628,74.972H63.451c-0.067,0-0.136-0.007-0.202-0.015c-6.179-0.882-9.563-4.051-10.503-5.062
			c-3.138-3.001-3.477-9.516-3.477-12.186v-1.921c0-0.646,0.448-1.202,1.077-1.34l1.88-0.412c8.652-1.878,11.798-5.484,12.91-8.198
			H49.052c-0.758,0-1.372-0.615-1.372-1.372v-8.958H37.097c-0.435,0-0.843-0.206-1.102-0.555c-0.258-0.349-0.337-0.801-0.21-1.216
			l9.938-32.735c0.222-0.723,0.971-1.137,1.711-0.915l4.562,1.382c0.349,0.105,0.639,0.345,0.81,0.666
			c0.172,0.32,0.21,0.697,0.104,1.044l-7.534,24.817h8.443c0.758,0,1.372,0.614,1.372,1.372v8.958h16.29
			c0.675,0,1.25,0.49,1.355,1.157l0.318,2.011c0.001,0.015,0.076,0.496,0.076,1.3c0,3.044-1.197,13.134-16.267,17.672
			c0.25,2.239,0.7,3.684,0.967,3.999c0.035,0.033,0.191,0.179,0.224,0.216c0.166,0.189,1.978,2.173,5.813,2.777h9.661
			c0.758,0,1.372,0.615,1.372,1.372V73.6C75,74.357,74.386,74.972,73.628,74.972z M54.913,68.193
			c0.849,0.853,3.685,3.329,8.563,4.023l8.781,0.011v-2.024h-8.396c-0.067,0-0.136-0.006-0.203-0.016
			c-4.79-0.719-7.2-3.285-7.46-3.575c-1.521-1.379-1.951-5.388-2.073-7.054c-0.048-0.654,0.375-1.25,1.009-1.423
			c14.246-3.854,15.353-12.718,15.353-15.341c0-0.502-0.038-0.821-0.045-0.883L70.31,41.07H53.818c-0.756,0-1.37-0.614-1.37-1.372
			v-8.957h-8.923c-0.433,0-0.842-0.205-1.103-0.554c-0.258-0.349-0.337-0.801-0.21-1.215l7.674-25.274L47.95,3.111l-9.002,29.655
			h10.104c0.757,0,1.37,0.615,1.37,1.372v8.957h16.536c0.405,0,0.792,0.181,1.052,0.491c0.262,0.311,0.371,0.722,0.3,1.122
			c-0.602,3.358-3.411,9.385-15.5,12.011l-0.798,0.174v0.817c0,3.58,0.64,7.998,2.412,9.979c0.051,0.038,0.097,0.082,0.144,0.13
			l0.246,0.257C54.85,68.113,54.884,68.152,54.913,68.193z"/>
	</g>
</g>
</svg>
