<?xml version="1.0" encoding="utf-8"?>
<!-- Generator: Adobe Illustrator 16.0.0, SVG Export Plug-In . SVG Version: 6.00 Build 0)  -->
<!DOCTYPE svg PUBLIC "-//W3C//DTD SVG 1.1//EN" "http://www.w3.org/Graphics/SVG/1.1/DTD/svg11.dtd">
<svg version="1.1" id="圖層_1" xmlns="http://www.w3.org/2000/svg" xmlns:xlink="http://www.w3.org/1999/xlink" x="0px" y="0px"
	 width="75px" height="75px" viewBox="0 0 75 75" enable-background="new 0 0 75 75" xml:space="preserve">
<g>
	<g>
		<g>
			<path fill="#1E284B" d="M72.272,11.868c0,0-18.175-16.676-37.249-3.173c0,0-8.401,9.045-4.339,16.159
				c0,0-0.748,3.141-1.946,4.039l-5.536,6.884c0,0-1.345,2.652,1.347,3.72l4.938,2.116c0,0-1.75,2.543-4.292,3.293
				c0,0-1.347,1.045,0.15,1.944l5.041,1.197l-5.479,3.646c0,0,3.291,0.388,5.609,1.057c0,0-3.349,8.467,2.562,11.016
				c0,0,11.058,0.638,10.154,8.779h21.218c0,0-4.84-8.709,2.842-22.156C67.291,50.389,80.57,19.408,72.272,11.868z"/>
			<g>
				<path fill="#1E284B" d="M19.973,58.391c-0.595,0-1.187-0.238-1.622-0.711c-5.688-6.14-2.439-12.417,0.074-14.881
					c0.873-0.853,2.272-0.84,3.127,0.033c0.851,0.87,0.84,2.263-0.023,3.118c-0.696,0.701-3.94,4.401,0.066,8.729
					c0.83,0.895,0.776,2.294-0.12,3.124C21.049,58.197,20.511,58.391,19.973,58.391z"/>
				<path fill="#1E284B" d="M13.913,61.832c-0.56,0-1.122-0.212-1.552-0.636c-8.326-8.216-3.717-18.237-0.118-22.39
					c0.8-0.923,2.198-1.021,3.12-0.223c0.92,0.8,1.021,2.193,0.226,3.114c-0.322,0.374-7.557,9.012-0.123,16.349
					c0.871,0.858,0.878,2.257,0.021,3.126C15.054,61.612,14.485,61.832,13.913,61.832z"/>
				<path fill="#1E284B" d="M8.012,66.522c-0.612,0-1.22-0.252-1.656-0.745C-7.921,49.639,6.293,34.895,6.439,34.746
					c0.858-0.87,2.257-0.876,3.125-0.019c0.869,0.855,0.877,2.252,0.023,3.12c-0.49,0.503-11.418,12,0.08,25.001
					c0.81,0.913,0.723,2.314-0.191,3.119C9.056,66.34,8.533,66.522,8.012,66.522z"/>
			</g>
		</g>
		<path fill="#1E284B" d="M32.257,12.452c0,0,4.386-11.08,22.425-9.911c0,0,19.053,2.872,20.132,15.007"/>
	</g>
	<path fill="#1E284B" d="M24.907,51.693c0,0-0.391-0.428,0.188-0.725l5.291-2.921"/>
</g>
</svg>
