<?xml version="1.0" encoding="utf-8"?>
<!-- Generator: Adobe Illustrator 16.0.0, SVG Export Plug-In . SVG Version: 6.00 Build 0)  -->
<!DOCTYPE svg PUBLIC "-//W3C//DTD SVG 1.1//EN" "http://www.w3.org/Graphics/SVG/1.1/DTD/svg11.dtd">
<svg version="1.1" id="圖層_1" xmlns="http://www.w3.org/2000/svg" xmlns:xlink="http://www.w3.org/1999/xlink" x="0px" y="0px"
	 width="486px" height="67.98px" viewBox="0 0 486 67.98" enable-background="new 0 0 486 67.98" xml:space="preserve">
<g>
	<g>
		<g>
			<g>
				<g>
					<g>
						<path fill="#14398B" d="M2.509,23.341l5.884-0.308c0.082,1.87,0.405,3.132,0.968,3.787c0.906,1.064,2.583,1.597,5.029,1.597
							c2.033,0,3.502-0.363,4.41-1.088c0.906-0.722,1.36-1.599,1.36-2.623c0-0.888-0.372-1.642-1.113-2.255
							c-0.523-0.451-1.957-1.184-4.3-2.195c-2.343-1.01-4.055-1.853-5.134-2.529c-1.08-0.678-1.928-1.557-2.546-2.636
							c-0.618-1.08-0.927-2.343-0.927-3.793c0-2.527,0.917-4.626,2.749-6.292c1.833-1.668,4.486-2.502,7.96-2.502
							c3.528,0,6.26,0.825,8.195,2.476c1.935,1.649,2.999,3.844,3.19,6.584l-5.884,0.267c-0.151-1.434-0.675-2.532-1.569-3.296
							c-0.896-0.766-2.218-1.148-3.966-1.148c-1.721,0-2.951,0.302-3.687,0.901c-0.737,0.602-1.105,1.359-1.105,2.273
							c0,0.86,0.335,1.572,1.007,2.132c0.671,0.573,2.159,1.359,4.463,2.356c3.468,1.487,5.674,2.697,6.62,3.625
							c1.413,1.367,2.119,3.122,2.119,5.266c0,2.651-1.049,4.915-3.147,6.793c-2.099,1.878-5.02,2.816-8.765,2.816
							c-2.583,0-4.822-0.433-6.716-1.297c-1.893-0.864-3.229-2.065-4.008-3.603C2.816,27.112,2.454,25.342,2.509,23.341z"/>
						<path fill="#FFFFFF" d="M14.319,36.053c-2.93,0-5.54-0.513-7.755-1.522c-2.415-1.103-4.165-2.7-5.202-4.75
							c-0.966-1.906-1.423-4.097-1.355-6.51c0.036-1.305,1.069-2.362,2.372-2.43l5.883-0.308c0.664-0.035,1.32,0.198,1.814,0.647
							c0.494,0.448,0.789,1.076,0.818,1.743c0.079,1.792,0.379,2.278,0.392,2.298c0.276,0.321,1.251,0.691,3.104,0.691
							c2.014,0,2.689-0.414,2.847-0.541c0.419-0.333,0.419-0.533,0.419-0.666c0-0.087,0-0.156-0.206-0.327
							c-0.089-0.072-0.713-0.537-3.695-1.824c-2.486-1.071-4.276-1.957-5.472-2.708c-1.427-0.896-2.567-2.077-3.389-3.513
							c-0.834-1.458-1.258-3.152-1.258-5.036c0-3.251,1.201-5.992,3.569-8.145C9.504,1.062,12.749,0,16.849,0
							c4.123,0,7.427,1.034,9.819,3.074c2.457,2.095,3.825,4.893,4.064,8.315c0.047,0.673-0.18,1.336-0.629,1.84
							c-0.448,0.504-1.082,0.805-1.756,0.836l-5.883,0.266c-0.23,0.008-0.456-0.012-0.67-0.06c2.509,1.256,3.517,2.069,4.073,2.615
							c1.899,1.839,2.868,4.216,2.868,7.053c0,3.381-1.339,6.294-3.981,8.658C22.192,34.891,18.681,36.053,14.319,36.053z
							 M5.202,25.707c0.138,0.652,0.346,1.257,0.627,1.81c0.52,1.027,1.44,1.831,2.814,2.458c1.557,0.711,3.467,1.071,5.676,1.071
							c3.093,0,5.479-0.733,7.095-2.18c1.578-1.412,2.313-2.978,2.313-4.927c0-1.47-0.431-2.571-1.356-3.467
							c-0.339-0.333-1.564-1.278-5.865-3.124c-3.374-1.459-4.499-2.237-5.102-2.753c-1.225-1.02-1.885-2.422-1.885-4.035
							c0-1.675,0.701-3.132,2.026-4.213C11.91,6.051,12.32,5.8,12.781,5.594c-0.879,0.304-1.617,0.726-2.208,1.264
							c-1.317,1.197-1.931,2.608-1.931,4.44c0,1.014,0.195,1.848,0.596,2.549c0.414,0.724,0.972,1.299,1.705,1.759
							c0.963,0.604,2.576,1.396,4.794,2.352c3.406,1.47,4.41,2.138,4.943,2.597c1.284,1.063,1.982,2.51,1.982,4.152
							c0,1.797-0.797,3.381-2.305,4.582c-1.375,1.098-3.328,1.632-5.969,1.632c-3.247,0-5.515-0.81-6.935-2.476
							c-0.592-0.688-1.009-1.6-1.267-2.789L5.202,25.707z M16.815,9.89c-1.667,0-2.101,0.335-2.105,0.338
							c-0.184,0.15-0.184,0.211-0.184,0.333c0,0.11,0,0.12,0.105,0.208c0.194,0.165,0.972,0.735,3.855,1.982
							c0.86,0.368,1.62,0.711,2.292,1.027c-0.501-0.403-0.845-0.999-0.918-1.686c-0.123-1.157-0.561-1.531-0.705-1.654
							C18.741,10.084,17.911,9.89,16.815,9.89z M19.84,5.277c0.996,0.291,1.854,0.744,2.568,1.354
							c0.827,0.706,1.452,1.577,1.869,2.605l0.872-0.039c-0.388-0.893-0.962-1.659-1.729-2.313
							C22.512,6.11,21.313,5.573,19.84,5.277z"/>
					</g>
					<g>
						<path fill="#DFC44A" d="M33.868,11.267h5.496l-0.511,2.627c2.157-2.084,4.423-3.128,6.796-3.128
							c1.638,0,2.9,0.341,3.789,1.023c0.886,0.681,1.453,1.621,1.7,2.821c0.75-1.091,1.828-2.004,3.234-2.74
							s2.866-1.104,4.382-1.104c1.733,0,3.083,0.468,4.053,1.402c0.969,0.936,1.453,2.172,1.453,3.713
							c-0.022,0.743-0.24,2.032-0.651,3.861l-2.798,13.244h-5.817l2.77-13.24c0.347-1.659,0.544-2.6,0.592-2.821
							c0-0.605-0.184-1.085-0.55-1.438c-0.367-0.352-0.917-0.528-1.649-0.528c-1.479,0-2.8,0.771-3.961,2.313
							c-0.844,1.104-1.563,3.063-2.157,5.872l-2.059,9.843h-5.818l2.742-13.121c0.313-1.513,0.47-2.495,0.47-2.943
							c0-0.574-0.196-1.043-0.585-1.411c-0.39-0.367-0.928-0.552-1.615-0.552c-0.646,0-1.311,0.192-1.997,0.573
							c-0.687,0.382-1.287,0.906-1.801,1.575c-0.516,0.667-0.958,1.526-1.328,2.575c-0.173,0.491-0.451,1.603-0.836,3.333
							l-2.063,9.971h-5.817L33.868,11.267z"/>
						<path fill="#FFFFFF" d="M60.811,35.489h-5.817c-0.754,0-1.468-0.339-1.943-0.925c-0.476-0.585-0.662-1.354-0.508-2.091
							l3.125-14.934c-0.359,0.121-0.867,0.434-1.473,1.237c-0.354,0.465-1.033,1.697-1.708,4.884l-2.057,9.837
							c-0.243,1.16-1.266,1.991-2.451,1.991h-5.818c-0.754,0-1.467-0.339-1.943-0.925c-0.476-0.585-0.662-1.353-0.508-2.091
							l2.742-13.121c0.18-0.869,0.283-1.443,0.34-1.815c-0.124,0.044-0.259,0.104-0.401,0.185c-0.389,0.216-0.727,0.514-1.032,0.911
							c-0.353,0.457-0.672,1.089-0.952,1.882c-0.062,0.176-0.259,0.824-0.753,3.045l-2.055,9.934
							c-0.241,1.162-1.265,1.996-2.452,1.996h-5.817c-0.754,0-1.467-0.339-1.943-0.924c-0.475-0.586-0.662-1.354-0.508-2.091
							l4.536-21.72c0.243-1.161,1.266-1.992,2.451-1.992h5.496c0.592,0,1.159,0.209,1.605,0.583c1.506-0.721,3.07-1.084,4.68-1.084
							c2.195,0,3.984,0.52,5.314,1.542c0.29,0.223,0.558,0.463,0.804,0.721c0.449-0.313,0.93-0.604,1.442-0.873
							c1.761-0.922,3.626-1.39,5.544-1.39c2.395,0,4.344,0.708,5.791,2.104c1.451,1.4,2.219,3.307,2.219,5.515
							c-0.029,1.002-0.255,2.38-0.712,4.411L63.26,33.503C63.016,34.661,61.994,35.489,60.811,35.489z M58.076,30.482h0.706
							l2.378-11.258c0.498-2.216,0.588-3.092,0.598-3.42c-0.001-1.029-0.369-1.525-0.689-1.835
							c-0.168-0.162-0.658-0.635-2.023-0.694c0.174,0.122,0.339,0.257,0.494,0.405c0.603,0.581,1.319,1.613,1.319,3.244
							c0,0.175-0.018,0.35-0.055,0.521L58.076,30.482z M45.243,30.482h0.703l1.642-7.852c0.557-2.627,1.229-4.608,2.048-6.019
							c-0.479-0.359-0.825-0.887-0.95-1.498c-0.126-0.613-0.364-1.026-0.773-1.34c-0.375-0.289-1.049-0.463-1.918-0.498
							c0.198,0.137,0.369,0.277,0.511,0.412c0.898,0.849,1.372,1.966,1.372,3.233c0,0.461-0.062,1.23-0.521,3.45L45.243,30.482z
							 M32.412,30.482h0.698l1.649-7.974c0.552-2.479,0.785-3.255,0.927-3.658c0.419-1.189,0.938-2.215,1.542-3.052
							c-0.588-0.502-0.915-1.251-0.876-2.028h-0.45L32.412,30.482z"/>
					</g>
					<g>
						<path fill="#DFC44A" d="M75.044,17.4l-5.696-0.485c0.649-1.927,1.782-3.435,3.399-4.52c1.618-1.086,3.759-1.63,6.425-1.63
							c2.773,0,4.824,0.562,6.15,1.688c1.326,1.123,1.988,2.495,1.988,4.117c0,0.654-0.058,1.35-0.173,2.085
							c-0.116,0.735-0.522,2.672-1.218,5.806c-0.574,2.59-0.861,4.4-0.861,5.438c0,0.927,0.166,1.956,0.496,3.087h-5.628
							c-0.27-0.79-0.437-1.606-0.501-2.451c-0.856,0.953-1.841,1.692-2.956,2.222c-1.115,0.528-2.236,0.792-3.364,0.792
							c-1.794,0-3.275-0.59-4.444-1.771c-1.169-1.18-1.753-2.698-1.753-4.557c0-2.074,0.643-3.733,1.928-4.976
							s3.579-1.994,6.885-2.253c2.789-0.23,4.651-0.511,5.59-0.839c0.245-0.822,0.369-1.481,0.369-1.974
							c0-0.63-0.25-1.158-0.746-1.583c-0.498-0.424-1.237-0.638-2.218-0.638c-1.036,0-1.852,0.213-2.451,0.636
							C75.666,16.02,75.26,16.62,75.044,17.4z M80.532,22.846c-0.354,0.096-0.823,0.186-1.408,0.271
							c-2.937,0.359-4.854,0.884-5.75,1.574c-0.64,0.497-0.958,1.167-0.958,2.011c0,0.691,0.245,1.275,0.734,1.752
							c0.489,0.477,1.135,0.715,1.937,0.715c0.883,0,1.716-0.218,2.498-0.653c0.78-0.435,1.365-0.994,1.753-1.679
							c0.387-0.685,0.73-1.752,1.03-3.204L80.532,22.846z"/>
						<path fill="#FFFFFF" d="M73.105,36.053c-2.48,0-4.575-0.846-6.225-2.516c-1.643-1.656-2.477-3.782-2.477-6.316
							c0-2.77,0.905-5.05,2.691-6.775c0.439-0.425,0.943-0.804,1.516-1.138c-0.552-0.169-1.034-0.527-1.357-1.02
							c-0.421-0.643-0.524-1.443-0.279-2.172c0.828-2.455,2.3-4.406,4.377-5.8c2.031-1.363,4.662-2.055,7.82-2.055
							c3.42,0,5.962,0.748,7.771,2.284c1.877,1.591,2.871,3.675,2.871,6.025c0,0.78-0.068,1.613-0.203,2.473
							c-0.128,0.807-0.536,2.756-1.248,5.961c-0.697,3.144-0.801,4.416-0.801,4.895c0,0.685,0.133,1.486,0.395,2.384
							c0.221,0.757,0.073,1.573-0.399,2.204c-0.473,0.631-1.215,1.002-2.003,1.002h-5.628c-0.695,0-1.341-0.287-1.803-0.767
							c-0.191,0.104-0.385,0.202-0.581,0.297C76.094,35.706,74.602,36.053,73.105,36.053z M70.72,23.917
							c-0.055,0.045-0.104,0.088-0.145,0.129c-0.794,0.768-1.164,1.776-1.164,3.175c0,1.199,0.327,2.087,1.027,2.793
							c0.542,0.55,1.176,0.869,1.961,0.984c-0.362-0.207-0.697-0.458-1-0.754c-0.973-0.947-1.488-2.174-1.488-3.543
							C69.912,25.672,70.193,24.722,70.72,23.917z M81.934,30.482h0.638c-0.011-0.198-0.016-0.392-0.016-0.583
							c0-1.248,0.292-3.148,0.919-5.979c0.848-3.813,1.115-5.18,1.19-5.655c0.094-0.601,0.142-1.172,0.142-1.693
							c0-0.881-0.34-1.562-1.103-2.208c-0.277-0.234-0.632-0.434-1.06-0.595c0.994,0.89,1.538,2.096,1.538,3.411
							c0,0.739-0.155,1.619-0.473,2.688c-0.188,0.631-0.614,1.156-1.178,1.472c0.43,0.571,0.6,1.306,0.451,2.019l-0.165,0.787
							c-0.354,1.717-0.78,3.003-1.301,3.925c-0.122,0.214-0.255,0.421-0.4,0.62c0.461,0.422,0.757,1.011,0.806,1.658
							C81.926,30.393,81.93,30.438,81.934,30.482z M74.926,26.656c0.031,0.002,0.085,0.008,0.16,0.008
							c0.455,0,0.873-0.11,1.279-0.337c0.166-0.092,0.308-0.188,0.43-0.293C75.494,26.322,75.04,26.579,74.926,26.656z"/>
					</g>
					<g>
						<path fill="#DFC44A" d="M94.211,11.267h5.497l-0.877,4.178c2.032-3.12,4.235-4.679,6.605-4.679
							c0.841,0,1.742,0.211,2.704,0.632l-2.253,4.786c-0.535-0.19-1.104-0.285-1.708-0.285c-1.015,0-2.047,0.382-3.095,1.146
							c-1.049,0.766-1.87,1.785-2.458,3.06c-0.59,1.277-1.173,3.302-1.747,6.07l-1.387,6.813h-5.816L94.211,11.267z"/>
						<path fill="#FFFFFF" d="M95.491,35.489h-5.816c-0.754,0-1.467-0.339-1.943-0.924c-0.475-0.586-0.662-1.354-0.508-2.091
							l4.536-21.72c0.243-1.161,1.266-1.992,2.451-1.992h5.497c0.61,0,1.194,0.223,1.647,0.618c2.362-1.36,4.969-1.509,7.788-0.277
							c0.62,0.271,1.104,0.78,1.341,1.413c0.238,0.634,0.209,1.336-0.079,1.947l-2.253,4.786c-0.549,1.166-1.891,1.726-3.105,1.292
							c-0.653-0.233-1.469-0.217-2.488,0.526c-0.707,0.515-1.25,1.197-1.66,2.085c-0.349,0.756-0.904,2.33-1.568,5.529l-1.385,6.803
							C97.708,34.651,96.682,35.489,95.491,35.489z M92.756,30.482h0.69l0.979-4.808c0.62-2.992,1.25-5.154,1.927-6.621
							c0.27-0.585,0.581-1.132,0.932-1.64c-0.734-0.576-1.104-1.533-0.904-2.484l0.244-1.159h-0.377L92.756,30.482z"/>
					</g>
					<g>
						<path fill="#DFC44A" d="M107.708,15.647l0.877-4.381h2.92l0.715-3.442l6.721-4.068l-1.542,7.511h3.454l-0.876,4.381H116.5
							l-1.945,9.155c-0.344,1.648-0.515,2.59-0.515,2.821c0,0.45,0.139,0.804,0.417,1.055c0.278,0.254,0.78,0.381,1.508,0.381
							c0.251,0,0.88-0.048,1.886-0.143l-0.939,4.326c-1,0.204-2.025,0.306-3.078,0.306c-2.053,0-3.545-0.403-4.476-1.208
							c-0.931-0.807-1.397-1.924-1.397-3.356c0-0.667,0.265-2.205,0.796-4.612l1.873-8.725H107.708z"/>
						<path fill="#FFFFFF" d="M113.833,36.053c-2.698,0-4.698-0.595-6.113-1.818c-1.033-0.895-2.263-2.529-2.263-5.25
							c0-0.594,0.097-1.717,0.855-5.151l1.221-5.688c-0.684-0.049-1.322-0.376-1.76-0.91c-0.475-0.581-0.666-1.344-0.519-2.079
							l0.877-4.381c0.234-1.171,1.262-2.013,2.455-2.013h0.883l0.301-1.448c0.141-0.681,0.56-1.271,1.155-1.632l6.721-4.069
							c0.851-0.515,1.926-0.478,2.74,0.097c0.813,0.573,1.209,1.574,1.009,2.549l-0.924,4.504h0.384c0.75,0,1.46,0.337,1.937,0.917
							c0.475,0.579,0.666,1.343,0.519,2.078l-0.876,4.381c-0.234,1.17-1.262,2.013-2.456,2.013h-1.45l-1.524,7.172
							c-0.1,0.479-0.178,0.865-0.24,1.178c0.221-0.019,0.5-0.043,0.853-0.077c0.798-0.071,1.577,0.235,2.106,0.833
							c0.53,0.598,0.743,1.411,0.573,2.191l-0.939,4.326c-0.21,0.969-0.973,1.723-1.945,1.922
							C116.254,35.933,115.05,36.053,113.833,36.053z M112.175,13.679c0.146,0.116,0.281,0.248,0.4,0.396
							c0.476,0.588,0.66,1.36,0.501,2.1l-1.873,8.725c-0.705,3.194-0.74,3.963-0.74,4.086c0,0.889,0.284,1.248,0.531,1.463
							c0.195,0.169,0.82,0.55,2.504,0.595c-0.27-0.144-0.514-0.315-0.733-0.517c-0.79-0.714-1.23-1.748-1.23-2.901
							c0-0.348,0.042-0.813,0.568-3.333l1.947-9.163c0.199-0.937,0.906-1.657,1.796-1.897c-0.141-0.111-0.272-0.239-0.388-0.382
							c-0.476-0.583-0.664-1.349-0.512-2.086l0.39-1.898l-0.886,0.537l-0.494,2.374C113.763,12.712,113.062,13.434,112.175,13.679z"
							/>
					</g>
					<g>
						<path fill="#14398B" d="M126.465,32.986h-6.201l6.262-29.919h13.301c2.289,0,4.07,0.234,5.343,0.704
							c1.273,0.468,2.302,1.33,3.086,2.582c0.783,1.251,1.175,2.768,1.175,4.55c0,2.544-0.761,4.643-2.282,6.296
							c-1.521,1.652-3.827,2.678-6.915,3.07c0.788,0.708,1.53,1.643,2.225,2.797c1.374,2.342,2.905,5.647,4.594,9.92h-6.635
							c-0.531-1.688-1.567-4.323-3.115-7.902c-0.842-1.933-1.738-3.233-2.688-3.9c-0.584-0.394-1.602-0.591-3.053-0.591h-2.505
							L126.465,32.986z M130.002,16.086h3.263c3.304,0,5.495-0.196,6.576-0.591c1.08-0.393,1.927-1.009,2.539-1.851
							c0.612-0.839,0.918-1.721,0.918-2.644c0-1.082-0.442-1.896-1.325-2.438c-0.544-0.326-1.719-0.489-3.527-0.489h-6.768
							L130.002,16.086z"/>
						<path fill="#FFFFFF" d="M147.054,35.489h-6.635c-1.093,0-2.06-0.709-2.388-1.752c-0.508-1.616-1.525-4.192-3.025-7.659
							c-0.823-1.891-1.477-2.572-1.77-2.803c-0.107-0.041-0.551-0.179-1.673-0.179h-0.471l-2.177,10.401
							c-0.243,1.16-1.266,1.991-2.45,1.991h-6.201c-0.754,0-1.468-0.339-1.943-0.925c-0.475-0.585-0.662-1.354-0.507-2.091
							l6.262-29.92c0.243-1.159,1.266-1.99,2.451-1.99h13.301c2.611,0,4.642,0.28,6.209,0.858c1.798,0.662,3.26,1.875,4.342,3.604
							c1.033,1.65,1.557,3.628,1.557,5.878c0,3.181-0.99,5.869-2.943,7.991c-1.146,1.244-2.614,2.207-4.387,2.882
							c0,0.001,0,0.001,0,0.001c1.465,2.496,3.023,5.854,4.776,10.288c0.305,0.771,0.208,1.643-0.258,2.328
							C148.658,35.079,147.882,35.489,147.054,35.489z M142.204,30.482h1.112c-1.088-2.526-2.098-4.586-3.015-6.148
							c-0.51-0.848-1.054-1.553-1.607-2.08c0.313,0.552,0.614,1.161,0.906,1.831C140.722,26.681,141.594,28.822,142.204,30.482z
							 M123.347,30.482h1.085l2.177-10.402c0.208-0.996,0.992-1.75,1.959-1.942c-0.189-0.132-0.36-0.291-0.508-0.474
							c-0.475-0.584-0.662-1.353-0.507-2.091l1.676-8.012c0.243-1.16,1.265-1.991,2.45-1.991h6.768c2.385,0,3.825,0.253,4.813,0.846
							c1.647,1.01,2.542,2.634,2.542,4.585c0,1.461-0.471,2.847-1.399,4.12c-0.735,1.01-1.696,1.806-2.863,2.372
							c1.657-0.402,2.922-1.069,3.77-1.99c1.09-1.185,1.62-2.688,1.62-4.6c0-1.314-0.26-2.368-0.794-3.222
							c-0.486-0.776-1.083-1.287-1.828-1.561c-0.682-0.252-2.01-0.551-4.479-0.551h-11.268L123.347,30.482z M134.951,18.57
							c0.395,0.145,0.748,0.323,1.064,0.536c0.644,0.452,1.239,1.043,1.795,1.786c-0.113-0.442-0.106-0.916,0.036-1.369
							c0.152-0.488,0.446-0.907,0.831-1.213C137.798,18.433,136.607,18.53,134.951,18.57z M133.084,13.582h0.181
							c4.188,0,5.436-0.336,5.718-0.438c0.609-0.223,1.058-0.54,1.373-0.972c0.393-0.54,0.438-0.927,0.438-1.171
							c0-0.161-0.026-0.223-0.028-0.226l0,0c0,0-0.007-0.009-0.025-0.023c-0.179-0.048-0.792-0.174-2.295-0.174h-4.733
							L133.084,13.582z"/>
					</g>
					<g>
						<path fill="#DFC44A" d="M171.477,23.973H156.8c-0.014,0.232-0.021,0.41-0.021,0.533c0,1.453,0.411,2.624,1.232,3.514
							c0.821,0.89,1.823,1.337,3.006,1.337c1.942,0,3.458-1.001,4.544-3.005l5.258,0.876c-1.019,2.107-2.382,3.688-4.088,4.741
							c-1.707,1.053-3.619,1.58-5.739,1.58c-2.909,0-5.274-0.925-7.096-2.774c-1.821-1.852-2.731-4.3-2.731-7.347
							c0-2.977,0.822-5.627,2.465-7.95c2.24-3.143,5.438-4.712,9.595-4.712c2.648,0,4.753,0.822,6.315,2.467s2.343,3.949,2.343,6.91
							C171.885,21.563,171.749,22.84,171.477,23.973z M166.564,20.405c0.013-0.261,0.021-0.459,0.021-0.597
							c0-1.616-0.362-2.829-1.083-3.637s-1.689-1.213-2.901-1.213c-1.212,0-2.298,0.46-3.258,1.378
							c-0.96,0.917-1.611,2.274-1.951,4.068H166.564z"/>
						<path fill="#FFFFFF" d="M160.994,36.053c-3.591,0-6.579-1.186-8.879-3.521c-2.291-2.329-3.451-5.391-3.451-9.104
							c0-3.491,0.984-6.652,2.924-9.396c2.731-3.831,6.646-5.771,11.639-5.771c3.349,0,6.084,1.093,8.13,3.246
							c2.012,2.119,3.032,5.024,3.032,8.635c0,1.611-0.16,3.096-0.477,4.414c-0.139,0.581-0.475,1.073-0.926,1.413
							c0.02,0.035,0.04,0.07,0.058,0.106c0.363,0.7,0.375,1.53,0.031,2.241c-1.226,2.534-2.917,4.479-5.027,5.782
							C165.945,35.396,163.572,36.053,160.994,36.053z M156.379,16.049c-0.248,0.273-0.484,0.567-0.708,0.882
							c-1.344,1.9-2,4.027-2,6.497c0,2.214,0.567,3.948,1.731,5.287c-0.748-1.186-1.126-2.596-1.126-4.209
							c0-0.156,0.007-0.383,0.025-0.681c0.047-0.801,0.467-1.496,1.086-1.92c-0.42-0.561-0.587-1.274-0.456-1.967
							C155.218,18.428,155.703,17.126,156.379,16.049z M160.008,26.477c0.296,0.265,0.602,0.376,1.01,0.376
							c0.393,0,0.824-0.063,1.269-0.376H160.008z M168.832,21.469h0.5c0.033-0.423,0.049-0.865,0.049-1.326
							c0-2.293-0.531-3.979-1.622-5.151c0.882,1.23,1.33,2.848,1.33,4.817c0,0.166-0.008,0.405-0.023,0.719
							C169.049,20.863,168.966,21.182,168.832,21.469z M161.359,17.901h2.325c-0.016-0.021-0.033-0.042-0.05-0.062
							c-0.175-0.195-0.421-0.377-1.034-0.377C162.281,17.463,161.863,17.519,161.359,17.901z"/>
					</g>
					<g>
						<path fill="#DFC44A" d="M182.009,17.4l-5.696-0.485c0.649-1.927,1.781-3.435,3.398-4.52c1.619-1.086,3.76-1.63,6.425-1.63
							c2.774,0,4.825,0.562,6.151,1.688c1.326,1.123,1.989,2.495,1.989,4.117c0,0.654-0.059,1.35-0.175,2.085
							c-0.115,0.735-0.521,2.672-1.218,5.806c-0.573,2.59-0.86,4.4-0.86,5.438c0,0.927,0.166,1.956,0.496,3.087h-5.629
							c-0.27-0.79-0.437-1.606-0.501-2.451c-0.855,0.953-1.84,1.692-2.956,2.222c-1.115,0.528-2.235,0.792-3.364,0.792
							c-1.793,0-3.276-0.59-4.444-1.771c-1.169-1.18-1.754-2.698-1.754-4.557c0-2.074,0.644-3.733,1.929-4.976
							s3.579-1.994,6.885-2.253c2.787-0.23,4.651-0.511,5.59-0.839c0.246-0.822,0.369-1.481,0.369-1.974
							c0-0.63-0.25-1.158-0.746-1.583c-0.498-0.424-1.237-0.638-2.218-0.638c-1.036,0-1.852,0.213-2.451,0.636
							C182.63,16.02,182.224,16.62,182.009,17.4z M187.497,22.846c-0.354,0.096-0.823,0.186-1.408,0.271
							c-2.937,0.359-4.854,0.884-5.75,1.574c-0.641,0.497-0.959,1.167-0.959,2.011c0,0.691,0.246,1.275,0.735,1.752
							c0.489,0.477,1.135,0.715,1.937,0.715c0.882,0,1.715-0.218,2.498-0.653c0.781-0.435,1.366-0.994,1.753-1.679
							s0.73-1.752,1.03-3.204L187.497,22.846z"/>
						<path fill="#FFFFFF" d="M180.069,36.053c-2.481,0-4.576-0.847-6.225-2.517c-1.642-1.655-2.477-3.781-2.477-6.315
							c0-2.77,0.906-5.049,2.692-6.775c0.439-0.425,0.943-0.804,1.517-1.138c-0.552-0.169-1.034-0.527-1.357-1.02
							c-0.421-0.643-0.524-1.443-0.279-2.172c0.828-2.456,2.3-4.406,4.376-5.8c2.032-1.363,4.664-2.055,7.82-2.055
							c3.421,0,5.963,0.748,7.772,2.284c1.877,1.591,2.872,3.676,2.872,6.025c0,0.779-0.069,1.613-0.206,2.476
							c-0.126,0.802-0.534,2.752-1.248,5.958c-0.696,3.145-0.8,4.416-0.8,4.895c0,0.685,0.133,1.486,0.395,2.384
							c0.221,0.757,0.073,1.573-0.4,2.204c-0.473,0.631-1.215,1.002-2.003,1.002h-5.629c-0.695,0-1.341-0.287-1.803-0.766
							c-0.19,0.104-0.384,0.201-0.58,0.296C183.058,35.706,181.566,36.053,180.069,36.053z M177.683,23.919
							c-0.055,0.044-0.102,0.087-0.144,0.127c-0.794,0.768-1.165,1.776-1.165,3.175c0,1.198,0.327,2.086,1.028,2.793
							c0.543,0.55,1.177,0.869,1.962,0.984c-0.362-0.207-0.697-0.458-1-0.754c-0.974-0.948-1.489-2.174-1.489-3.543
							C176.875,25.673,177.156,24.723,177.683,23.919z M188.897,30.482h0.639c-0.011-0.198-0.016-0.392-0.016-0.583
							c0-1.246,0.292-3.146,0.918-5.979c0.849-3.813,1.116-5.179,1.19-5.653c0.096-0.608,0.145-1.178,0.145-1.696
							c0-0.88-0.34-1.561-1.104-2.208c-0.277-0.234-0.632-0.434-1.06-0.595c0.994,0.89,1.538,2.096,1.538,3.411
							c0,0.744-0.155,1.624-0.473,2.69c-0.188,0.629-0.614,1.153-1.178,1.469c0.43,0.571,0.6,1.306,0.451,2.019l-0.165,0.787
							c-0.354,1.717-0.78,3.003-1.302,3.925c-0.121,0.214-0.254,0.422-0.399,0.621c0.459,0.421,0.755,1.008,0.804,1.654
							C188.889,30.391,188.893,30.437,188.897,30.482z M181.891,26.656c0.031,0.002,0.085,0.008,0.16,0.008
							c0.455,0,0.873-0.11,1.279-0.337c0.166-0.092,0.309-0.189,0.43-0.293C182.458,26.322,182.004,26.579,181.891,26.656z"/>
					</g>
					<g>
						<path fill="#DFC44A" d="M216.973,32.986h-5.563l0.481-2.299c-1.063,1.023-2.108,1.755-3.137,2.197
							c-1.029,0.441-2.191,0.664-3.485,0.664c-2.25,0-4.073-0.768-5.469-2.305c-1.397-1.536-2.097-3.808-2.097-6.813
							c0-3.482,0.997-6.63,2.989-9.444c1.992-2.813,4.628-4.221,7.907-4.221c2.96,0,5.181,1.176,6.661,3.525l2.414-11.224h5.817
							L216.973,32.986z M203.398,24.213c0,1.558,0.397,2.772,1.191,3.646c0.792,0.873,1.77,1.31,2.93,1.31
							c1.076,0,2.08-0.365,3.011-1.096c0.93-0.729,1.676-1.845,2.236-3.346s0.839-2.94,0.839-4.319c0-1.569-0.429-2.838-1.284-3.807
							c-0.856-0.969-1.843-1.453-2.96-1.453c-1.74,0-3.168,0.954-4.286,2.864C203.958,19.924,203.398,21.989,203.398,24.213z"/>
						<path fill="#FFFFFF" d="M205.269,36.053c-2.975,0-5.438-1.051-7.322-3.126c-1.823-2.003-2.747-4.862-2.747-8.496
							c0-3.994,1.16-7.658,3.449-10.891c2.445-3.453,5.885-5.278,9.95-5.278c1.923,0,3.648,0.414,5.135,1.219l1.492-6.939
							c0.249-1.153,1.268-1.978,2.448-1.978h5.817c0.757,0,1.474,0.343,1.95,0.933c0.475,0.59,0.658,1.363,0.497,2.104
							l-6.517,29.919c-0.251,1.15-1.269,1.971-2.447,1.971h-5.563c-0.503,0-0.988-0.151-1.396-0.425
							c-0.09,0.042-0.18,0.082-0.27,0.12C208.399,35.762,206.894,36.053,205.269,36.053z M205.005,14.22
							c-0.84,0.517-1.589,1.251-2.271,2.214c-1.702,2.403-2.529,5.019-2.529,7.997c0,2.349,0.486,4.074,1.446,5.128
							c0.798,0.881,1.768,1.352,3.02,1.462c-0.714-0.354-1.365-0.851-1.937-1.48c-1.221-1.343-1.841-3.136-1.841-5.327
							c0-2.661,0.68-5.173,2.02-7.465C203.561,15.644,204.274,14.823,205.005,14.22z M214.387,30.482h0.569l5.427-24.912h-0.687
							l-1.988,9.247c-0.214,0.995-1.009,1.762-2.012,1.939c-0.102,0.019-0.205,0.029-0.306,0.035c0.479,1.066,0.72,2.275,0.72,3.615
							c0,1.671-0.335,3.419-0.997,5.193c-0.45,1.208-1.018,2.245-1.697,3.101C213.979,29.134,214.33,29.784,214.387,30.482z
							 M209.361,17.65c-0.351,0-1.174,0-2.125,1.626c-0.897,1.535-1.334,3.15-1.334,4.937c0,0.907,0.182,1.567,0.54,1.961
							c0.321,0.354,0.622,0.49,1.078,0.49c0.512,0,0.978-0.179,1.466-0.562c0.56-0.438,1.042-1.195,1.435-2.25
							c0.452-1.214,0.682-2.373,0.682-3.445c0-0.945-0.215-1.648-0.658-2.15C209.908,17.65,209.539,17.65,209.361,17.65z"/>
					</g>
					<g>
						<path fill="#DFC44A" d="M227.053,11.267h5.817l-4.545,21.72h-5.817L227.053,11.267z M228.77,3.067h5.817l-1.1,5.258h-5.817
							L228.77,3.067z"/>
						<path fill="#FFFFFF" d="M228.325,35.489h-5.817c-0.754,0-1.468-0.339-1.943-0.925c-0.475-0.585-0.662-1.354-0.507-2.091
							l4.544-21.72c0.114-0.547,0.402-1.021,0.798-1.368c-0.227-0.486-0.294-1.037-0.182-1.573l1.1-5.259
							c0.243-1.159,1.265-1.99,2.451-1.99h5.817c0.754,0,1.468,0.34,1.943,0.925c0.475,0.585,0.662,1.354,0.507,2.092l-1.1,5.259
							c-0.114,0.547-0.402,1.02-0.798,1.368c0.227,0.485,0.294,1.037,0.182,1.572l-4.544,21.719
							C230.533,34.658,229.511,35.489,228.325,35.489z M225.59,30.482h0.701l3.498-16.712h-0.701L225.59,30.482z M230.75,5.822
							h0.702l0.053-0.252h-0.701L230.75,5.822z"/>
					</g>
					<g>
						<path fill="#DFC44A" d="M238.731,11.267h5.56l-0.563,2.857c1.407-1.208,2.722-2.07,3.943-2.586
							c1.221-0.514,2.508-0.772,3.86-0.772c1.806,0,3.232,0.519,4.274,1.551c1.042,1.034,1.563,2.405,1.563,4.114
							c-0.027,0.758-0.279,2.192-0.757,4.309l-2.643,12.247h-5.816l2.634-12.284c0.384-1.837,0.594-2.934,0.63-3.294
							c0-0.761-0.228-1.358-0.681-1.796c-0.454-0.435-1.085-0.653-1.894-0.653c-0.88,0-1.856,0.36-2.931,1.084
							c-1.073,0.721-1.918,1.673-2.531,2.857c-0.459,0.846-0.975,2.567-1.548,5.166l-1.821,8.92h-5.817L238.731,11.267z"/>
						<path fill="#FFFFFF" d="M253.97,35.489h-5.816c-0.756,0-1.473-0.341-1.947-0.93c-0.476-0.588-0.659-1.359-0.501-2.099
							l2.634-12.283c0.331-1.584,0.477-2.349,0.54-2.714c-0.165-0.004-0.622,0.019-1.567,0.655
							c-0.729,0.489-1.287,1.121-1.707,1.933c-0.18,0.332-0.618,1.345-1.326,4.554l-1.813,8.881
							c-0.238,1.166-1.263,2.003-2.453,2.003h-5.817c-0.754,0-1.468-0.339-1.943-0.924c-0.475-0.586-0.662-1.354-0.508-2.091
							l4.536-21.72c0.243-1.161,1.266-1.992,2.451-1.992h5.56c0.676,0,1.319,0.273,1.788,0.751c0.207-0.102,0.413-0.195,0.62-0.282
							c1.526-0.644,3.151-0.97,4.833-0.97c2.48,0,4.512,0.767,6.037,2.276c1.529,1.519,2.304,3.5,2.304,5.893
							c-0.022,0.677-0.13,1.81-0.818,4.859l-2.638,12.224C256.169,34.667,255.149,35.489,253.97,35.489z M251.25,30.482h0.698
							l2.218-10.271c0.604-2.683,0.692-3.601,0.702-3.871c-0.002-1.271-0.472-1.896-0.825-2.246c-0.514-0.51-1.25-0.779-2.244-0.819
							c0.267,0.174,0.488,0.357,0.67,0.531c0.664,0.641,1.451,1.78,1.451,3.603c0,0.081-0.004,0.163-0.012,0.244
							c-0.034,0.347-0.139,1.02-0.671,3.563L251.25,30.482z M237.276,30.482h0.692l1.412-6.917c0.848-3.846,1.434-5.186,1.802-5.861
							c0.292-0.565,0.634-1.099,1.022-1.594c-0.713-0.547-1.083-1.441-0.955-2.34h-0.484L237.276,30.482z"/>
					</g>
					<g>
						<path fill="#DFC44A" d="M259.437,34.175l6.207,0.891c0,0.62,0.099,1.089,0.297,1.406c0.197,0.318,0.52,0.589,0.964,0.812
							c0.442,0.223,1.048,0.334,1.816,0.334c1.314,0,2.369-0.25,3.163-0.749c0.593-0.387,1.077-1.011,1.452-1.869
							c0.231-0.542,0.526-1.72,0.889-3.535l0.211-1.013c-2.126,1.689-4.324,2.535-6.592,2.535c-2.106,0-3.834-0.748-5.184-2.24
							c-1.35-1.494-2.024-3.68-2.024-6.559c0-2.539,0.46-4.867,1.379-6.985c0.92-2.119,2.211-3.722,3.873-4.807
							c1.663-1.086,3.358-1.63,5.09-1.63c1.424,0,2.728,0.379,3.91,1.136c1.183,0.756,2.104,1.816,2.763,3.182l0.799-3.816h5.498
							l-3.453,18.034c-0.624,2.922-1.151,5.006-1.581,6.255c-0.431,1.248-0.923,2.242-1.478,2.983
							c-0.554,0.739-1.255,1.361-2.101,1.862c-0.846,0.5-1.845,0.86-2.994,1.081c-1.151,0.217-2.399,0.329-3.744,0.329
							c-3.039,0-5.337-0.524-6.891-1.569c-1.554-1.044-2.331-2.783-2.331-5.212C259.375,34.771,259.396,34.487,259.437,34.175z
							 M266.332,23.575c0,1.636,0.367,2.883,1.103,3.742c0.736,0.858,1.657,1.287,2.765,1.287c1.036,0,2.042-0.386,3.017-1.156
							s1.723-1.864,2.24-3.284c0.519-1.419,0.777-2.791,0.777-4.115c0-1.527-0.427-2.756-1.279-3.69
							c-0.854-0.934-1.841-1.399-2.959-1.399c-1.038,0-1.993,0.413-2.862,1.237c-0.87,0.824-1.588,2.094-2.153,3.812
							C266.547,21.334,266.332,22.521,266.332,23.575z"/>
						<path fill="#FFFFFF" d="M268.597,44.314c-3.579,0-6.29-0.652-8.287-1.994c-1.569-1.054-3.438-3.174-3.438-7.29
							c0-0.371,0.027-0.758,0.083-1.182c0.087-0.663,0.436-1.265,0.969-1.669c0.534-0.403,1.208-0.576,1.868-0.482l0.47,0.067
							c-1.413-1.906-2.129-4.45-2.129-7.577c0-2.872,0.533-5.558,1.586-7.982c1.113-2.566,2.728-4.554,4.8-5.906
							c2.07-1.352,4.242-2.037,6.459-2.037c1.903,0,3.673,0.516,5.26,1.53c0.044,0.028,0.087,0.056,0.13,0.084
							c0.453-0.679,1.226-1.113,2.082-1.113h5.498c0.746,0,1.454,0.333,1.93,0.909c0.476,0.574,0.67,1.332,0.529,2.065
							l-3.453,18.034c-0.661,3.099-1.205,5.241-1.674,6.601c-0.521,1.509-1.122,2.708-1.839,3.666
							c-0.754,1.006-1.705,1.852-2.83,2.518c-1.09,0.645-2.366,1.11-3.798,1.386C271.495,44.189,270.08,44.314,268.597,44.314z
							 M262.23,37.105c0.247,0.567,0.586,0.866,0.872,1.059c0.442,0.298,1.007,0.539,1.684,0.722
							c-0.394-0.319-0.72-0.686-0.974-1.096c-0.099-0.157-0.186-0.322-0.262-0.496L262.23,37.105z M275.854,28.388
							c0.828,0.568,1.24,1.582,1.032,2.574l-0.211,1.014c-0.522,2.618-0.827,3.517-1.035,4.004
							c-0.373,0.853-0.835,1.567-1.382,2.145c0.472-0.307,0.858-0.665,1.175-1.087c0.395-0.527,0.77-1.301,1.113-2.298
							c0.396-1.148,0.9-3.154,1.499-5.962l2.874-15.007h-0.437l-0.382,1.825c-0.189,0.904-0.856,1.617-1.717,1.881
							c0.235,0.791,0.354,1.649,0.354,2.572c0,1.612-0.313,3.286-0.929,4.975C277.328,26.339,276.673,27.465,275.854,28.388z
							 M267.368,14.42c-0.037,0.023-0.074,0.047-0.111,0.071c-1.256,0.819-2.219,2.032-2.944,3.707
							c-0.778,1.792-1.173,3.808-1.173,5.989c0,2.226,0.464,3.867,1.379,4.881c0.787,0.871,1.727,1.322,2.93,1.401
							c-0.712-0.361-1.356-0.872-1.914-1.524c-1.133-1.321-1.706-3.129-1.706-5.37c0-1.332,0.252-2.752,0.771-4.344
							C265.296,17.114,266.202,15.542,267.368,14.42z M271.995,17.463c-0.26,0-0.626,0.063-1.141,0.55
							c-0.387,0.367-0.96,1.146-1.497,2.778c-0.346,1.06-0.522,1.999-0.522,2.784c0,0.985,0.179,1.736,0.502,2.114
							c0.261,0.304,0.485,0.411,0.862,0.411c0.46,0,0.939-0.201,1.465-0.616c0.61-0.483,1.081-1.196,1.44-2.179
							c0.416-1.137,0.626-2.232,0.626-3.257c0-1.316-0.471-1.832-0.625-2.002C272.635,17.532,272.28,17.463,271.995,17.463z"/>
					</g>
				</g>
			</g>
		</g>
	</g>
	<g>
		<g>
			<path fill="#DFC44A" d="M290.244,21.271h11.203l-1.167,5.572h-11.202L290.244,21.271z"/>
			<path fill="#FFFFFF" d="M300.28,29.348h-11.202c-0.754,0-1.468-0.339-1.943-0.925c-0.476-0.585-0.662-1.354-0.508-2.092
				l1.167-5.572c0.243-1.16,1.266-1.991,2.45-1.991h11.203c0.754,0,1.468,0.34,1.943,0.925c0.476,0.586,0.662,1.354,0.508,2.092
				l-1.167,5.573C302.488,28.518,301.466,29.348,300.28,29.348z M292.159,24.34h6.087l0.12-0.564h-6.088L292.159,24.34z"/>
		</g>
		<g>
			<path fill="#14398B" d="M319.852,34.688h-5.753l-1.066-24.64l-4.687,24.64h-5.471l6.155-29.486h8.648l0.906,20.657l10.057-20.657
				h8.749l-6.175,29.486h-5.531l5.813-24.458L319.852,34.688z"/>
			<path fill="#FFFFFF" d="M331.216,37.191h-5.531c-0.766,0-1.489-0.351-1.965-0.952c-0.474-0.601-0.648-1.386-0.471-2.131
				l0.348-1.464l-1.485,3.12c-0.415,0.871-1.295,1.427-2.26,1.427h-5.753c-1.341,0-2.443-1.057-2.502-2.396l-0.134-3.098
				l-0.657,3.457c-0.225,1.181-1.258,2.036-2.46,2.036h-5.471c-0.754,0-1.467-0.34-1.943-0.925
				c-0.475-0.584-0.661-1.354-0.507-2.091l6.155-29.486c0.242-1.161,1.266-1.992,2.45-1.992h8.648c1.34,0,2.443,1.056,2.502,2.395
				l0.474,10.797l5.735-11.783c0.42-0.861,1.294-1.408,2.252-1.408h8.749c0.754,0,1.468,0.34,1.943,0.925
				c0.475,0.586,0.662,1.354,0.507,2.092l-6.175,29.487C333.423,36.361,332.4,37.191,331.216,37.191z M328.854,32.184h0.328
				l2.438-11.64L328.854,32.184z M316.497,32.184h1.773l2.264-4.755c-0.579,0.72-1.527,1.075-2.458,0.882
				c-0.837-0.175-1.506-0.756-1.813-1.514L316.497,32.184z M305.956,32.184h0.317l3.263-17.155L305.956,32.184z M331.497,7.726
				c0.276,0,0.558,0.046,0.832,0.143c0.803,0.283,1.378,0.938,1.586,1.712l0.393-1.875h-4.101l-0.279,0.573
				C330.37,7.923,330.925,7.726,331.497,7.726z M313.916,7.705c0.646,0.243,1.162,0.744,1.428,1.378l-0.061-1.378H313.916z
				 M311.065,7.705l-0.243,1.166c0.286-0.539,0.762-0.953,1.328-1.166H311.065z"/>
		</g>
		<g>
			<path fill="#DFC44A" d="M345.315,19.382l-5.632-0.483c0.644-1.904,1.767-3.393,3.369-4.465s3.725-1.609,6.366-1.609
				c2.748,0,4.78,0.553,6.095,1.66c1.313,1.104,1.971,2.456,1.971,4.053c0,0.644-0.057,1.327-0.172,2.052
				c-0.113,0.724-0.512,2.628-1.195,5.711c-0.563,2.549-0.846,4.332-0.846,5.352c0,0.912,0.161,1.923,0.482,3.036h-5.611
				c-0.229-0.776-0.369-1.581-0.423-2.414c-0.844,0.939-1.817,1.661-2.916,2.164c-1.1,0.502-2.206,0.753-3.318,0.753
				c-1.771,0-3.232-0.579-4.386-1.739s-1.729-2.652-1.729-4.475c0-2.039,0.633-3.668,1.899-4.889
				c1.268-1.221,3.531-1.958,6.789-2.212c2.749-0.229,4.585-0.503,5.512-0.826c0.24-0.804,0.361-1.447,0.361-1.93
				c0-0.616-0.248-1.133-0.744-1.55c-0.496-0.414-1.234-0.623-2.213-0.623c-1.032,0-1.847,0.212-2.443,0.634
				C345.935,18.003,345.53,18.604,345.315,19.382z M350.807,24.731c-0.35,0.094-0.812,0.181-1.388,0.262
				c-2.897,0.349-4.787,0.858-5.673,1.528c-0.63,0.483-0.944,1.135-0.944,1.952c0,0.67,0.24,1.236,0.724,1.699
				c0.483,0.462,1.12,0.693,1.911,0.693c0.871,0,1.692-0.211,2.463-0.634c0.771-0.422,1.348-0.965,1.73-1.629
				s0.721-1.699,1.015-3.107L350.807,24.731z"/>
			<path fill="#FFFFFF" d="M343.485,37.694c-2.454,0-4.527-0.834-6.161-2.478c-1.631-1.641-2.457-3.74-2.457-6.24
				c0-2.736,0.897-4.988,2.667-6.692c0.391-0.376,0.834-0.716,1.331-1.02c-0.519-0.179-0.97-0.526-1.276-0.995
				c-0.421-0.643-0.523-1.444-0.276-2.172c0.821-2.431,2.284-4.363,4.348-5.745c2.015-1.349,4.625-2.032,7.759-2.032
				c3.391,0,5.91,0.736,7.707,2.249c1.872,1.574,2.861,3.639,2.861,5.968c0,0.772-0.067,1.594-0.201,2.442
				c-0.078,0.494-0.289,1.643-1.226,5.862c-0.684,3.093-0.785,4.341-0.785,4.81c0,0.673,0.129,1.461,0.384,2.341
				c0.219,0.756,0.069,1.57-0.404,2.199c-0.473,0.63-1.214,1-2.001,1h-5.611c-0.682,0-1.313-0.276-1.772-0.734
				c-0.172,0.09-0.348,0.176-0.525,0.257C346.423,37.364,344.956,37.694,343.485,37.694z M340.986,25.912
				c-0.758,0.741-1.112,1.717-1.112,3.064c0,1.161,0.318,2.023,1.002,2.71c0.484,0.486,1.044,0.788,1.727,0.921
				c-0.288-0.178-0.558-0.387-0.808-0.624c-0.98-0.941-1.497-2.153-1.497-3.51C340.298,27.535,340.536,26.664,340.986,25.912z
				 M352.224,32.184h0.559c-0.009-0.18-0.014-0.357-0.014-0.532c0-1.229,0.287-3.101,0.903-5.892
				c0.835-3.767,1.097-5.102,1.168-5.559c0.094-0.594,0.141-1.152,0.141-1.664c0-0.851-0.333-1.51-1.079-2.137
				c-0.224-0.189-0.499-0.354-0.824-0.494c0.881,0.865,1.359,1.991,1.359,3.214c0,0.731-0.152,1.598-0.467,2.648
				c-0.187,0.623-0.605,1.143-1.161,1.459c0.429,0.572,0.599,1.308,0.447,2.021l-0.161,0.765c-0.351,1.68-0.774,2.936-1.296,3.84
				c-0.115,0.202-0.242,0.396-0.379,0.584c0.462,0.427,0.756,1.022,0.799,1.676C352.22,32.136,352.222,32.16,352.224,32.184z
				 M346.809,27.973c-0.625,0.15-1.015,0.288-1.247,0.388c0.399-0.018,0.772-0.125,1.135-0.323
				C346.735,28.017,346.772,27.995,346.809,27.973z"/>
		</g>
		<g>
			<path fill="#DFC44A" d="M364.624,13.327h5.471l-0.563,2.775c1.368-1.18,2.646-2.021,3.831-2.524
				c1.188-0.502,2.438-0.754,3.752-0.754c1.757,0,3.141,0.503,4.153,1.509s1.519,2.34,1.519,4.002c0,0.752-0.222,2.173-0.664,4.265
				l-2.514,12.088h-5.772l2.534-12.128c0.375-1.811,0.563-2.891,0.563-3.238c0-0.737-0.219-1.318-0.654-1.74
				s-1.043-0.634-1.82-0.634c-0.845,0-1.784,0.355-2.815,1.066c-1.033,0.711-1.845,1.649-2.435,2.815
				c-0.43,0.831-0.911,2.528-1.448,5.09l-1.83,8.769h-5.772L364.624,13.327z"/>
			<path fill="#FFFFFF" d="M379.609,37.191h-5.772c-0.754,0-1.468-0.34-1.943-0.925s-0.662-1.354-0.508-2.092l2.534-12.128
				c0.329-1.581,0.446-2.29,0.489-2.593c-0.167,0.014-0.599,0.107-1.344,0.621c-0.69,0.475-1.22,1.091-1.622,1.884
				c-0.155,0.302-0.566,1.303-1.23,4.473l-1.83,8.768c-0.243,1.161-1.266,1.992-2.451,1.992h-5.772c-0.754,0-1.469-0.34-1.943-0.926
				c-0.476-0.584-0.662-1.353-0.508-2.091l4.466-21.36c0.242-1.16,1.265-1.991,2.45-1.991h5.471c0.652,0,1.273,0.254,1.738,0.701
				c0.185-0.089,0.37-0.173,0.554-0.251c1.493-0.633,3.083-0.953,4.729-0.953c2.433,0,4.423,0.753,5.918,2.236
				c1.498,1.489,2.258,3.433,2.258,5.778c0,0.594-0.074,1.736-0.718,4.782l-2.514,12.08
				C381.818,36.359,380.795,37.191,379.609,37.191z M376.918,32.184h0.655l2.1-10.094c0.551-2.613,0.611-3.496,0.611-3.755
				c0-1.301-0.445-1.893-0.78-2.225c-0.179-0.179-0.693-0.689-2.019-0.771c0.21,0.148,0.389,0.3,0.538,0.446
				c0.643,0.621,1.414,1.743,1.414,3.536c0,0.395-0.048,1.009-0.615,3.746L376.918,32.184z M363.24,32.184h0.656l1.414-6.776
				c0.786-3.748,1.332-5.063,1.675-5.727c0.29-0.573,0.626-1.108,1.005-1.604c-0.681-0.532-1.042-1.382-0.947-2.245h-0.385
				L363.24,32.184z"/>
		</g>
		<g>
			<path fill="#DFC44A" d="M404.972,34.688h-5.471l0.483-2.312c-1.047,1.005-2.075,1.726-3.088,2.161
				c-1.012,0.436-2.155,0.653-3.43,0.653c-2.212,0-4.006-0.753-5.38-2.263c-1.375-1.509-2.062-3.737-2.062-6.688
				c0-3.419,0.966-6.51,2.896-9.271c1.932-2.763,4.486-4.144,7.664-4.144c2.869,0,5.021,1.14,6.457,3.419l2.313-11.042h5.773
				L404.972,34.688z M391.638,25.999c0,1.528,0.385,2.723,1.155,3.579c0.771,0.859,1.721,1.288,2.847,1.288
				c1.046,0,2.021-0.358,2.927-1.076c0.904-0.716,1.629-1.813,2.172-3.288c0.543-1.476,0.814-2.89,0.814-4.245
				c0-1.541-0.415-2.788-1.247-3.74c-0.831-0.952-1.789-1.428-2.876-1.428c-1.689,0-3.077,0.938-4.163,2.815
				C392.18,21.782,391.638,23.813,391.638,25.999z"/>
			<path fill="#FFFFFF" d="M393.467,37.694c-2.937,0-5.37-1.037-7.231-3.08c-1.8-1.977-2.714-4.794-2.714-8.375
				c0-3.926,1.127-7.528,3.348-10.705c2.385-3.411,5.744-5.214,9.716-5.214c1.83,0,3.477,0.385,4.902,1.131l1.416-6.764
				c0.244-1.159,1.266-1.99,2.451-1.99h5.773c0.754,0,1.467,0.34,1.943,0.925c0.475,0.585,0.66,1.353,0.507,2.091l-6.155,29.486
				c-0.242,1.161-1.266,1.992-2.451,1.992h-5.471c-0.512,0-1.006-0.156-1.419-0.441c-0.065,0.029-0.131,0.059-0.196,0.087
				C396.567,37.405,395.08,37.694,393.467,37.694z M392.659,16.592c-0.609,0.468-1.168,1.069-1.686,1.812
				c-1.645,2.353-2.444,4.915-2.444,7.836c0,2.294,0.475,3.977,1.408,5.003c0.734,0.806,1.617,1.26,2.741,1.398
				c-0.641-0.346-1.228-0.81-1.748-1.389c-1.191-1.325-1.797-3.094-1.797-5.253c0-2.622,0.661-5.095,1.966-7.349
				C391.587,17.808,392.114,17.131,392.659,16.592z M402.481,32.184h0.455l5.11-24.479h-0.659l-1.896,9.052
				c-0.209,0.999-1.004,1.771-2.009,1.95c-0.038,0.007-0.076,0.014-0.114,0.019c0.457,1.044,0.688,2.224,0.688,3.531
				c0,1.644-0.325,3.363-0.969,5.109c-0.429,1.164-0.967,2.167-1.609,3.001C402.063,30.801,402.426,31.468,402.481,32.184z
				 M397.43,19.592c-0.326,0-1.09,0-1.996,1.566c-0.87,1.503-1.293,3.087-1.293,4.841c0,0.885,0.173,1.525,0.514,1.905
				c0.298,0.33,0.573,0.459,0.985,0.459c0.299,0,0.767-0.056,1.372-0.535c0.534-0.425,0.998-1.161,1.378-2.191
				c0.438-1.19,0.66-2.328,0.66-3.38c0-0.924-0.207-1.609-0.63-2.095C397.922,19.592,397.589,19.592,397.43,19.592z"/>
		</g>
		<g>
			<path fill="#DFC44A" d="M418.55,19.382l-5.633-0.483c0.644-1.904,1.767-3.393,3.369-4.465s3.725-1.609,6.366-1.609
				c2.749,0,4.78,0.553,6.095,1.66c1.313,1.104,1.971,2.456,1.971,4.053c0,0.644-0.057,1.327-0.171,2.052
				c-0.114,0.724-0.513,2.628-1.196,5.711c-0.563,2.549-0.846,4.332-0.846,5.352c0,0.912,0.162,1.923,0.483,3.036h-5.611
				c-0.229-0.776-0.37-1.581-0.423-2.414c-0.845,0.939-1.816,1.661-2.916,2.164c-1.101,0.502-2.206,0.753-3.319,0.753
				c-1.771,0-3.231-0.579-4.385-1.739s-1.729-2.652-1.729-4.475c0-2.039,0.634-3.668,1.9-4.889c1.268-1.221,3.53-1.958,6.789-2.212
				c2.748-0.229,4.586-0.503,5.511-0.826c0.241-0.804,0.362-1.447,0.362-1.93c0-0.616-0.249-1.133-0.745-1.55
				c-0.495-0.414-1.233-0.623-2.212-0.623c-1.032,0-1.848,0.212-2.444,0.634C419.17,18.003,418.764,18.604,418.55,19.382z
				 M424.04,24.731c-0.349,0.094-0.811,0.181-1.388,0.262c-2.896,0.349-4.787,0.858-5.673,1.528
				c-0.63,0.483-0.944,1.135-0.944,1.952c0,0.67,0.241,1.236,0.724,1.699c0.483,0.462,1.12,0.693,1.911,0.693
				c0.871,0,1.692-0.211,2.464-0.634c0.771-0.422,1.348-0.965,1.729-1.629c0.383-0.664,0.721-1.699,1.017-3.107L424.04,24.731z"/>
			<path fill="#FFFFFF" d="M416.719,37.694c-2.453,0-4.526-0.834-6.16-2.478c-1.631-1.64-2.458-3.739-2.458-6.24
				c0-2.735,0.896-4.986,2.667-6.691c0.391-0.376,0.833-0.716,1.331-1.021c-0.519-0.179-0.969-0.526-1.276-0.995
				c-0.421-0.643-0.523-1.444-0.276-2.172c0.821-2.431,2.284-4.363,4.348-5.745c2.015-1.349,4.625-2.032,7.759-2.032
				c3.391,0,5.911,0.736,7.707,2.249c1.872,1.574,2.862,3.639,2.862,5.968c0,0.772-0.068,1.594-0.202,2.442
				c-0.078,0.494-0.289,1.643-1.226,5.862c-0.684,3.093-0.785,4.341-0.785,4.81c0,0.671,0.129,1.458,0.385,2.341
				c0.219,0.756,0.069,1.57-0.404,2.199c-0.473,0.63-1.214,1-2.001,1h-5.611c-0.682,0-1.313-0.276-1.772-0.734
				c-0.172,0.09-0.348,0.176-0.525,0.257C419.655,37.364,418.188,37.694,416.719,37.694z M414.22,25.912
				c-0.758,0.742-1.111,1.718-1.111,3.064c0,1.161,0.317,2.022,1.001,2.709c0.484,0.487,1.046,0.789,1.728,0.922
				c-0.289-0.178-0.559-0.387-0.809-0.624c-0.98-0.943-1.497-2.155-1.497-3.51C413.531,27.536,413.771,26.664,414.22,25.912z
				 M425.458,32.184h0.558c-0.009-0.18-0.014-0.357-0.014-0.532c0-1.229,0.287-3.101,0.903-5.892
				c0.835-3.767,1.097-5.102,1.168-5.559c0.094-0.594,0.141-1.152,0.141-1.664c0-0.851-0.332-1.51-1.079-2.137
				c-0.224-0.189-0.499-0.354-0.824-0.494c0.882,0.864,1.359,1.99,1.359,3.214c0,0.736-0.152,1.603-0.467,2.65
				c-0.188,0.622-0.606,1.142-1.161,1.457c0.428,0.571,0.598,1.306,0.447,2.018l-0.159,0.765c-0.353,1.685-0.777,2.94-1.298,3.843
				c-0.115,0.201-0.241,0.396-0.378,0.583c0.462,0.428,0.757,1.024,0.799,1.68C425.454,32.138,425.456,32.161,425.458,32.184z
				 M420.042,27.973c-0.625,0.15-1.015,0.288-1.247,0.388c0.4-0.018,0.772-0.125,1.135-0.323
				C419.969,28.017,420.006,27.995,420.042,27.973z"/>
		</g>
		<g>
			<path fill="#DFC44A" d="M437.456,13.327h5.391l-0.865,4.144c2.012-3.098,4.19-4.646,6.537-4.646c0.832,0,1.723,0.209,2.675,0.623
				l-2.212,4.728c-0.523-0.188-1.08-0.281-1.67-0.281c-0.992,0-2.001,0.375-3.027,1.126c-1.025,0.752-1.827,1.753-2.403,3.007
				s-1.146,3.241-1.709,5.964l-1.408,6.697h-5.773L437.456,13.327z"/>
			<path fill="#FFFFFF" d="M438.764,37.191h-5.773c-0.754,0-1.468-0.34-1.943-0.926c-0.475-0.584-0.662-1.353-0.507-2.091
				l4.465-21.36c0.243-1.16,1.266-1.991,2.451-1.991h5.391c0.604,0,1.181,0.218,1.631,0.604c2.341-1.348,4.924-1.492,7.716-0.275
				c0.619,0.27,1.104,0.777,1.343,1.41c0.238,0.632,0.212,1.334-0.074,1.946l-2.213,4.728c-0.548,1.172-1.897,1.732-3.113,1.295
				c-0.624-0.224-1.395-0.209-2.373,0.509c-0.683,0.5-1.208,1.165-1.606,2.031c-0.342,0.742-0.884,2.284-1.532,5.426l-1.411,6.706
				C440.97,36.362,439.948,37.191,438.764,37.191z M436.072,32.184h0.659l0.99-4.709c0.604-2.925,1.222-5.053,1.885-6.495
				c0.248-0.54,0.532-1.048,0.85-1.522c-0.748-0.573-1.126-1.539-0.926-2.498l0.235-1.128h-0.275L436.072,32.184z"/>
		</g>
		<g>
			<path fill="#DFC44A" d="M453.809,13.327h5.772l-4.466,21.36h-5.771L453.809,13.327z M455.498,5.201h5.772l-1.086,5.23h-5.772
				L455.498,5.201z"/>
			<path fill="#FFFFFF" d="M455.115,37.191h-5.771c-0.755,0-1.469-0.34-1.943-0.926c-0.476-0.584-0.662-1.353-0.508-2.091
				l4.466-21.36c0.112-0.536,0.391-1.001,0.774-1.348c-0.218-0.479-0.281-1.019-0.173-1.544l1.086-5.23
				c0.241-1.162,1.266-1.995,2.452-1.995h5.772c0.753,0,1.467,0.34,1.942,0.924s0.662,1.352,0.509,2.089l-1.087,5.23
				c-0.111,0.537-0.39,1.004-0.774,1.351c0.219,0.48,0.281,1.021,0.171,1.549l-4.465,21.36
				C457.323,36.36,456.301,37.191,455.115,37.191z M452.425,32.184h0.656l3.418-16.353h-0.656L452.425,32.184z M457.489,7.928h0.658
				l0.047-0.223h-0.659L457.489,7.928z"/>
		</g>
		<g>
			<path fill="#DFC44A" d="M465.333,13.327h5.472l-0.563,2.775c1.368-1.18,2.646-2.021,3.831-2.524
				c1.188-0.502,2.438-0.754,3.752-0.754c1.757,0,3.141,0.503,4.153,1.509s1.519,2.34,1.519,4.002c0,0.752-0.222,2.173-0.664,4.265
				l-2.514,12.088h-5.773l2.535-12.128c0.375-1.811,0.563-2.891,0.563-3.238c0-0.737-0.219-1.318-0.654-1.74
				s-1.043-0.634-1.82-0.634c-0.845,0-1.784,0.355-2.815,1.066c-1.033,0.711-1.845,1.649-2.435,2.815
				c-0.429,0.831-0.911,2.528-1.448,5.09l-1.83,8.769h-5.772L465.333,13.327z"/>
			<path fill="#FFFFFF" d="M480.318,37.191h-5.773c-0.754,0-1.468-0.34-1.943-0.926c-0.476-0.584-0.662-1.353-0.508-2.091
				l2.535-12.128c0.329-1.581,0.446-2.29,0.489-2.593c-0.167,0.014-0.599,0.107-1.344,0.621c-0.69,0.475-1.22,1.091-1.621,1.884
				c-0.156,0.302-0.567,1.303-1.231,4.473l-1.83,8.768c-0.242,1.161-1.266,1.992-2.451,1.992h-5.772
				c-0.754,0-1.468-0.34-1.943-0.926c-0.476-0.584-0.662-1.353-0.508-2.091l4.466-21.36c0.242-1.16,1.266-1.991,2.45-1.991h5.472
				c0.651,0,1.272,0.254,1.737,0.701c0.185-0.089,0.37-0.173,0.554-0.251c1.493-0.633,3.084-0.953,4.729-0.953
				c2.434,0,4.424,0.753,5.918,2.236c1.498,1.489,2.258,3.433,2.258,5.778c0,0.594-0.074,1.736-0.718,4.782l-2.514,12.08
				C482.527,36.359,481.505,37.191,480.318,37.191z M477.626,32.184h0.656l2.1-10.094c0.552-2.613,0.611-3.496,0.611-3.755
				c0-1.301-0.445-1.893-0.779-2.225c-0.18-0.179-0.693-0.689-2.019-0.771c0.209,0.148,0.388,0.3,0.537,0.446
				c0.643,0.621,1.414,1.743,1.414,3.536c0,0.395-0.048,1.009-0.614,3.746L477.626,32.184z M463.949,32.184h0.656l1.414-6.776
				c0.786-3.748,1.332-5.063,1.675-5.727c0.29-0.573,0.626-1.108,1.005-1.604c-0.681-0.532-1.042-1.382-0.947-2.245h-0.385
				L463.949,32.184z"/>
		</g>
	</g>
	<g>
		<g>
			<g>
				<path fill="#595757" d="M290.083,58.298c0,3.384-2.752,6.136-6.136,6.136c-3.386,0-6.137-2.752-6.137-6.136
					s2.751-6.138,6.137-6.138C287.331,52.16,290.083,54.914,290.083,58.298z M283.947,51.118c-3.959,0-7.18,3.221-7.18,7.18
					s3.221,7.179,7.18,7.179s7.179-3.22,7.179-7.179S287.906,51.118,283.947,51.118z"/>
				<path fill="#FFFFFF" d="M283.947,67.98c-5.339,0-9.683-4.344-9.683-9.683c0-5.34,4.344-9.684,9.683-9.684
					s9.682,4.344,9.682,9.684C293.629,63.637,289.286,67.98,283.947,67.98z M283.947,54.664c-2.003,0-3.633,1.63-3.633,3.634
					c0,2.003,1.63,3.633,3.633,3.633s3.632-1.63,3.632-3.633C287.579,56.294,285.95,54.664,283.947,54.664z"/>
			</g>
		</g>
		<g>
			<g>
				<path fill="#595757" d="M280.746,62.495v-8.395h3.727c0.749,0,1.318,0.076,1.708,0.227c0.39,0.153,0.699,0.419,0.935,0.801
					c0.232,0.381,0.348,0.806,0.348,1.267c0,0.597-0.192,1.098-0.579,1.507c-0.384,0.41-0.98,0.669-1.786,0.78
					c0.293,0.141,0.517,0.279,0.671,0.416c0.323,0.3,0.631,0.669,0.917,1.115l1.455,2.282h-1.389l-1.11-1.744
					c-0.325-0.503-0.592-0.888-0.802-1.154c-0.211-0.268-0.397-0.454-0.565-0.562c-0.166-0.107-0.333-0.182-0.507-0.223
					c-0.125-0.027-0.331-0.041-0.618-0.041h-1.289v3.724H280.746z M281.86,57.813h2.389c0.508,0,0.906-0.054,1.194-0.161
					c0.289-0.105,0.507-0.273,0.656-0.504c0.15-0.231,0.226-0.485,0.226-0.758c0-0.398-0.145-0.726-0.434-0.983
					c-0.289-0.256-0.747-0.386-1.373-0.386h-2.658V57.813z"/>
				<path fill="#FFFFFF" d="M288.141,64.999h-1.389c-0.855,0-1.651-0.437-2.111-1.158l-0.388-0.607
					c-0.314,1.022-1.267,1.766-2.393,1.766h-1.114c-1.383,0-2.503-1.12-2.503-2.504v-8.395c0-1.383,1.12-2.504,2.503-2.504h3.727
					c1.067,0,1.922,0.129,2.61,0.396c0.902,0.354,1.646,0.982,2.164,1.823c0.479,0.785,0.72,1.65,0.72,2.579
					c0,1.062-0.321,2.033-0.936,2.841l1.221,1.914c0.491,0.771,0.523,1.748,0.085,2.55
					C289.896,64.501,289.056,64.999,288.141,64.999z"/>
			</g>
		</g>
	</g>
	<g>
		<g>
			<g>
				<g>
					<path fill="#14398B" d="M2.509,23.341l5.884-0.308c0.082,1.87,0.405,3.132,0.968,3.787c0.906,1.064,2.583,1.597,5.029,1.597
						c2.033,0,3.502-0.363,4.41-1.088c0.906-0.722,1.36-1.599,1.36-2.623c0-0.888-0.372-1.642-1.113-2.255
						c-0.523-0.451-1.957-1.184-4.3-2.195c-2.343-1.01-4.055-1.853-5.134-2.529c-1.08-0.678-1.928-1.557-2.546-2.636
						c-0.618-1.08-0.927-2.343-0.927-3.793c0-2.527,0.917-4.626,2.749-6.292c1.833-1.668,4.486-2.502,7.96-2.502
						c3.528,0,6.26,0.825,8.195,2.476c1.935,1.649,2.999,3.844,3.19,6.584l-5.884,0.267c-0.151-1.434-0.675-2.532-1.569-3.296
						c-0.896-0.766-2.218-1.148-3.966-1.148c-1.721,0-2.951,0.302-3.687,0.901c-0.737,0.602-1.105,1.359-1.105,2.273
						c0,0.86,0.335,1.572,1.007,2.132c0.671,0.573,2.159,1.359,4.463,2.356c3.468,1.487,5.674,2.697,6.62,3.625
						c1.413,1.367,2.119,3.122,2.119,5.266c0,2.651-1.049,4.915-3.147,6.793c-2.099,1.878-5.02,2.816-8.765,2.816
						c-2.583,0-4.822-0.433-6.716-1.297c-1.893-0.864-3.229-2.065-4.008-3.603C2.816,27.112,2.454,25.342,2.509,23.341z"/>
					<path fill="#DFC44A" d="M33.868,11.267h5.496l-0.511,2.627c2.157-2.084,4.423-3.128,6.796-3.128c1.638,0,2.9,0.341,3.789,1.023
						c0.886,0.681,1.453,1.621,1.7,2.821c0.75-1.091,1.828-2.004,3.234-2.74s2.866-1.104,4.382-1.104
						c1.733,0,3.083,0.468,4.053,1.402c0.969,0.936,1.453,2.172,1.453,3.713c-0.022,0.743-0.24,2.032-0.651,3.861l-2.798,13.244
						h-5.817l2.77-13.24c0.347-1.659,0.544-2.6,0.592-2.821c0-0.605-0.184-1.085-0.55-1.438c-0.367-0.352-0.917-0.528-1.649-0.528
						c-1.479,0-2.8,0.771-3.961,2.313c-0.844,1.104-1.563,3.063-2.157,5.872l-2.059,9.843h-5.818l2.742-13.121
						c0.313-1.513,0.47-2.495,0.47-2.943c0-0.574-0.196-1.043-0.585-1.411c-0.39-0.367-0.928-0.552-1.615-0.552
						c-0.646,0-1.311,0.192-1.997,0.573c-0.687,0.382-1.287,0.906-1.801,1.575c-0.516,0.667-0.958,1.526-1.328,2.575
						c-0.173,0.491-0.451,1.603-0.836,3.333l-2.063,9.971h-5.817L33.868,11.267z"/>
					<path fill="#DFC44A" d="M75.044,17.4l-5.696-0.485c0.649-1.927,1.782-3.435,3.399-4.52c1.618-1.086,3.759-1.63,6.425-1.63
						c2.773,0,4.824,0.562,6.15,1.688c1.326,1.123,1.988,2.495,1.988,4.117c0,0.654-0.058,1.35-0.173,2.085
						c-0.116,0.735-0.522,2.672-1.218,5.806c-0.574,2.59-0.861,4.4-0.861,5.438c0,0.927,0.166,1.956,0.496,3.087h-5.628
						c-0.27-0.79-0.437-1.606-0.501-2.451c-0.856,0.953-1.841,1.692-2.956,2.222c-1.115,0.528-2.236,0.792-3.364,0.792
						c-1.794,0-3.275-0.59-4.444-1.771c-1.169-1.18-1.753-2.698-1.753-4.557c0-2.074,0.643-3.733,1.928-4.976
						s3.579-1.994,6.885-2.253c2.789-0.23,4.651-0.511,5.59-0.839c0.245-0.822,0.369-1.481,0.369-1.974
						c0-0.63-0.25-1.158-0.746-1.583c-0.498-0.424-1.237-0.638-2.218-0.638c-1.036,0-1.852,0.213-2.451,0.636
						C75.666,16.02,75.26,16.62,75.044,17.4z M80.532,22.846c-0.354,0.096-0.823,0.186-1.408,0.271
						c-2.937,0.359-4.854,0.884-5.75,1.574c-0.64,0.497-0.958,1.167-0.958,2.011c0,0.691,0.245,1.275,0.734,1.752
						c0.489,0.477,1.135,0.715,1.937,0.715c0.883,0,1.716-0.218,2.498-0.653c0.78-0.435,1.365-0.994,1.753-1.679
						c0.387-0.685,0.73-1.752,1.03-3.204L80.532,22.846z"/>
					<path fill="#DFC44A" d="M94.211,11.267h5.497l-0.877,4.178c2.032-3.12,4.235-4.679,6.605-4.679
						c0.841,0,1.742,0.211,2.704,0.632l-2.253,4.786c-0.535-0.19-1.104-0.285-1.708-0.285c-1.015,0-2.047,0.382-3.095,1.146
						c-1.049,0.766-1.87,1.785-2.458,3.06c-0.59,1.277-1.173,3.302-1.747,6.07l-1.387,6.813h-5.816L94.211,11.267z"/>
					<path fill="#DFC44A" d="M107.708,15.647l0.877-4.381h2.92l0.715-3.442l6.721-4.068l-1.542,7.511h3.454l-0.876,4.381H116.5
						l-1.945,9.155c-0.344,1.648-0.515,2.59-0.515,2.821c0,0.45,0.139,0.804,0.417,1.055c0.278,0.254,0.78,0.381,1.508,0.381
						c0.251,0,0.88-0.048,1.886-0.143l-0.939,4.326c-1,0.204-2.025,0.306-3.078,0.306c-2.053,0-3.545-0.403-4.476-1.208
						c-0.931-0.807-1.397-1.924-1.397-3.356c0-0.667,0.265-2.205,0.796-4.612l1.873-8.725H107.708z"/>
					<path fill="#14398B" d="M126.465,32.986h-6.201l6.262-29.919h13.301c2.289,0,4.07,0.234,5.343,0.704
						c1.273,0.468,2.302,1.33,3.086,2.582c0.783,1.251,1.175,2.768,1.175,4.55c0,2.544-0.761,4.643-2.282,6.296
						c-1.521,1.652-3.827,2.678-6.915,3.07c0.788,0.708,1.53,1.643,2.225,2.797c1.374,2.342,2.905,5.647,4.594,9.92h-6.635
						c-0.531-1.688-1.567-4.323-3.115-7.902c-0.842-1.933-1.738-3.233-2.688-3.9c-0.584-0.394-1.602-0.591-3.053-0.591h-2.505
						L126.465,32.986z M130.002,16.086h3.263c3.304,0,5.495-0.196,6.576-0.591c1.08-0.393,1.927-1.009,2.539-1.851
						c0.612-0.839,0.918-1.721,0.918-2.644c0-1.082-0.442-1.896-1.325-2.438c-0.544-0.326-1.719-0.489-3.527-0.489h-6.768
						L130.002,16.086z"/>
					<path fill="#DFC44A" d="M171.477,23.973H156.8c-0.014,0.232-0.021,0.41-0.021,0.533c0,1.453,0.411,2.624,1.232,3.514
						c0.821,0.89,1.823,1.337,3.006,1.337c1.942,0,3.458-1.001,4.544-3.005l5.258,0.876c-1.019,2.107-2.382,3.688-4.088,4.741
						c-1.707,1.053-3.619,1.58-5.739,1.58c-2.909,0-5.274-0.925-7.096-2.774c-1.821-1.852-2.731-4.3-2.731-7.347
						c0-2.977,0.822-5.627,2.465-7.95c2.24-3.143,5.438-4.712,9.595-4.712c2.648,0,4.753,0.822,6.315,2.467s2.343,3.949,2.343,6.91
						C171.885,21.563,171.749,22.84,171.477,23.973z M166.564,20.405c0.013-0.261,0.021-0.459,0.021-0.597
						c0-1.616-0.362-2.829-1.083-3.637s-1.689-1.213-2.901-1.213c-1.212,0-2.298,0.46-3.258,1.378
						c-0.96,0.917-1.611,2.274-1.951,4.068H166.564z"/>
					<path fill="#DFC44A" d="M182.009,17.4l-5.696-0.485c0.649-1.927,1.781-3.435,3.398-4.52c1.619-1.086,3.76-1.63,6.425-1.63
						c2.774,0,4.825,0.562,6.151,1.688c1.326,1.123,1.989,2.495,1.989,4.117c0,0.654-0.059,1.35-0.175,2.085
						c-0.115,0.735-0.521,2.672-1.218,5.806c-0.573,2.59-0.86,4.4-0.86,5.438c0,0.927,0.166,1.956,0.496,3.087h-5.629
						c-0.27-0.79-0.437-1.606-0.501-2.451c-0.855,0.953-1.84,1.692-2.956,2.222c-1.115,0.528-2.235,0.792-3.364,0.792
						c-1.793,0-3.276-0.59-4.444-1.771c-1.169-1.18-1.754-2.698-1.754-4.557c0-2.074,0.644-3.733,1.929-4.976
						s3.579-1.994,6.885-2.253c2.787-0.23,4.651-0.511,5.59-0.839c0.246-0.822,0.369-1.481,0.369-1.974
						c0-0.63-0.25-1.158-0.746-1.583c-0.498-0.424-1.237-0.638-2.218-0.638c-1.036,0-1.852,0.213-2.451,0.636
						C182.63,16.02,182.224,16.62,182.009,17.4z M187.497,22.846c-0.354,0.096-0.823,0.186-1.408,0.271
						c-2.937,0.359-4.854,0.884-5.75,1.574c-0.641,0.497-0.959,1.167-0.959,2.011c0,0.691,0.246,1.275,0.735,1.752
						c0.489,0.477,1.135,0.715,1.937,0.715c0.882,0,1.715-0.218,2.498-0.653c0.781-0.435,1.366-0.994,1.753-1.679
						s0.73-1.752,1.03-3.204L187.497,22.846z"/>
					<path fill="#DFC44A" d="M216.973,32.986h-5.563l0.481-2.299c-1.063,1.023-2.108,1.755-3.137,2.197
						c-1.029,0.441-2.191,0.664-3.485,0.664c-2.25,0-4.073-0.768-5.469-2.305c-1.397-1.536-2.097-3.808-2.097-6.813
						c0-3.482,0.997-6.63,2.989-9.444c1.992-2.813,4.628-4.221,7.907-4.221c2.96,0,5.181,1.176,6.661,3.525l2.414-11.224h5.817
						L216.973,32.986z M203.398,24.213c0,1.558,0.397,2.772,1.191,3.646c0.792,0.873,1.77,1.31,2.93,1.31
						c1.076,0,2.08-0.365,3.011-1.096c0.93-0.729,1.676-1.845,2.236-3.346s0.839-2.94,0.839-4.319c0-1.569-0.429-2.838-1.284-3.807
						c-0.856-0.969-1.843-1.453-2.96-1.453c-1.74,0-3.168,0.954-4.286,2.864C203.958,19.924,203.398,21.989,203.398,24.213z"/>
					<path fill="#DFC44A" d="M227.053,11.267h5.817l-4.545,21.72h-5.817L227.053,11.267z M228.77,3.067h5.817l-1.1,5.258h-5.817
						L228.77,3.067z"/>
					<path fill="#DFC44A" d="M238.731,11.267h5.56l-0.563,2.857c1.407-1.208,2.722-2.07,3.943-2.586
						c1.221-0.514,2.508-0.772,3.86-0.772c1.806,0,3.232,0.519,4.274,1.551c1.042,1.034,1.563,2.405,1.563,4.114
						c-0.027,0.758-0.279,2.192-0.757,4.309l-2.643,12.247h-5.816l2.634-12.284c0.384-1.837,0.594-2.934,0.63-3.294
						c0-0.761-0.228-1.358-0.681-1.796c-0.454-0.435-1.085-0.653-1.894-0.653c-0.88,0-1.856,0.36-2.931,1.084
						c-1.073,0.721-1.918,1.673-2.531,2.857c-0.459,0.846-0.975,2.567-1.548,5.166l-1.821,8.92h-5.817L238.731,11.267z"/>
					<path fill="#DFC44A" d="M259.437,34.175l6.207,0.891c0,0.62,0.099,1.089,0.297,1.406c0.197,0.318,0.52,0.589,0.964,0.812
						c0.442,0.223,1.048,0.334,1.816,0.334c1.314,0,2.369-0.25,3.163-0.749c0.593-0.387,1.077-1.011,1.452-1.869
						c0.231-0.542,0.526-1.72,0.889-3.535l0.211-1.013c-2.126,1.689-4.324,2.535-6.592,2.535c-2.106,0-3.834-0.748-5.184-2.24
						c-1.35-1.494-2.024-3.68-2.024-6.559c0-2.539,0.46-4.867,1.379-6.985c0.92-2.119,2.211-3.722,3.873-4.807
						c1.663-1.086,3.358-1.63,5.09-1.63c1.424,0,2.728,0.379,3.91,1.136c1.183,0.756,2.104,1.816,2.763,3.182l0.799-3.816h5.498
						l-3.453,18.034c-0.624,2.922-1.151,5.006-1.581,6.255c-0.431,1.248-0.923,2.242-1.478,2.983
						c-0.554,0.739-1.255,1.361-2.101,1.862c-0.846,0.5-1.845,0.86-2.994,1.081c-1.151,0.217-2.399,0.329-3.744,0.329
						c-3.039,0-5.337-0.524-6.891-1.569c-1.554-1.044-2.331-2.783-2.331-5.212C259.375,34.771,259.396,34.487,259.437,34.175z
						 M266.332,23.575c0,1.636,0.367,2.883,1.103,3.742c0.736,0.858,1.657,1.287,2.765,1.287c1.036,0,2.042-0.386,3.017-1.156
						s1.723-1.864,2.24-3.284c0.519-1.419,0.777-2.791,0.777-4.115c0-1.527-0.427-2.756-1.279-3.69
						c-0.854-0.934-1.841-1.399-2.959-1.399c-1.038,0-1.993,0.413-2.862,1.237c-0.87,0.824-1.588,2.094-2.153,3.812
						C266.547,21.334,266.332,22.521,266.332,23.575z"/>
				</g>
			</g>
		</g>
	</g>
	<g>
		<path fill="#DFC44A" d="M290.244,21.271h11.203l-1.167,5.572h-11.202L290.244,21.271z"/>
		<path fill="#14398B" d="M319.852,34.688h-5.753l-1.066-24.64l-4.687,24.64h-5.471l6.155-29.486h8.648l0.906,20.657l10.057-20.657
			h8.749l-6.175,29.486h-5.531l5.813-24.458L319.852,34.688z"/>
		<path fill="#DFC44A" d="M345.315,19.382l-5.632-0.483c0.644-1.904,1.767-3.393,3.369-4.465s3.725-1.609,6.366-1.609
			c2.748,0,4.78,0.553,6.095,1.66c1.313,1.104,1.971,2.456,1.971,4.053c0,0.644-0.057,1.327-0.172,2.052
			c-0.113,0.724-0.512,2.628-1.195,5.711c-0.563,2.549-0.846,4.332-0.846,5.352c0,0.912,0.161,1.923,0.482,3.036h-5.611
			c-0.229-0.776-0.369-1.581-0.423-2.414c-0.844,0.939-1.817,1.661-2.916,2.164c-1.1,0.502-2.206,0.753-3.318,0.753
			c-1.771,0-3.232-0.579-4.386-1.739s-1.729-2.652-1.729-4.475c0-2.039,0.633-3.668,1.899-4.889
			c1.268-1.221,3.531-1.958,6.789-2.212c2.749-0.229,4.585-0.503,5.512-0.826c0.24-0.804,0.361-1.447,0.361-1.93
			c0-0.616-0.248-1.133-0.744-1.55c-0.496-0.414-1.234-0.623-2.213-0.623c-1.032,0-1.847,0.212-2.443,0.634
			C345.935,18.003,345.53,18.604,345.315,19.382z M350.807,24.731c-0.35,0.094-0.812,0.181-1.388,0.262
			c-2.897,0.349-4.787,0.858-5.673,1.528c-0.63,0.483-0.944,1.135-0.944,1.952c0,0.67,0.24,1.236,0.724,1.699
			c0.483,0.462,1.12,0.693,1.911,0.693c0.871,0,1.692-0.211,2.463-0.634c0.771-0.422,1.348-0.965,1.73-1.629
			s0.721-1.699,1.015-3.107L350.807,24.731z"/>
		<path fill="#DFC44A" d="M364.624,13.327h5.471l-0.563,2.775c1.368-1.18,2.646-2.021,3.831-2.524
			c1.188-0.502,2.438-0.754,3.752-0.754c1.757,0,3.141,0.503,4.153,1.509s1.519,2.34,1.519,4.002c0,0.752-0.222,2.173-0.664,4.265
			l-2.514,12.088h-5.772l2.534-12.128c0.375-1.811,0.563-2.891,0.563-3.238c0-0.737-0.219-1.318-0.654-1.74s-1.043-0.634-1.82-0.634
			c-0.845,0-1.784,0.355-2.815,1.066c-1.033,0.711-1.845,1.649-2.435,2.815c-0.43,0.831-0.911,2.528-1.448,5.09l-1.83,8.769h-5.772
			L364.624,13.327z"/>
		<path fill="#DFC44A" d="M404.972,34.688h-5.471l0.483-2.312c-1.047,1.005-2.075,1.726-3.088,2.161
			c-1.012,0.436-2.155,0.653-3.43,0.653c-2.212,0-4.006-0.753-5.38-2.263c-1.375-1.509-2.062-3.737-2.062-6.688
			c0-3.419,0.966-6.51,2.896-9.271c1.932-2.763,4.486-4.144,7.664-4.144c2.869,0,5.021,1.14,6.457,3.419l2.313-11.042h5.773
			L404.972,34.688z M391.638,25.999c0,1.528,0.385,2.723,1.155,3.579c0.771,0.859,1.721,1.288,2.847,1.288
			c1.046,0,2.021-0.358,2.927-1.076c0.904-0.716,1.629-1.813,2.172-3.288c0.543-1.476,0.814-2.89,0.814-4.245
			c0-1.541-0.415-2.788-1.247-3.74c-0.831-0.952-1.789-1.428-2.876-1.428c-1.689,0-3.077,0.938-4.163,2.815
			C392.18,21.782,391.638,23.813,391.638,25.999z"/>
		<path fill="#DFC44A" d="M418.55,19.382l-5.633-0.483c0.644-1.904,1.767-3.393,3.369-4.465s3.725-1.609,6.366-1.609
			c2.749,0,4.78,0.553,6.095,1.66c1.313,1.104,1.971,2.456,1.971,4.053c0,0.644-0.057,1.327-0.171,2.052
			c-0.114,0.724-0.513,2.628-1.196,5.711c-0.563,2.549-0.846,4.332-0.846,5.352c0,0.912,0.162,1.923,0.483,3.036h-5.611
			c-0.229-0.776-0.37-1.581-0.423-2.414c-0.845,0.939-1.816,1.661-2.916,2.164c-1.101,0.502-2.206,0.753-3.319,0.753
			c-1.771,0-3.231-0.579-4.385-1.739s-1.729-2.652-1.729-4.475c0-2.039,0.634-3.668,1.9-4.889c1.268-1.221,3.53-1.958,6.789-2.212
			c2.748-0.229,4.586-0.503,5.511-0.826c0.241-0.804,0.362-1.447,0.362-1.93c0-0.616-0.249-1.133-0.745-1.55
			c-0.495-0.414-1.233-0.623-2.212-0.623c-1.032,0-1.848,0.212-2.444,0.634C419.17,18.003,418.764,18.604,418.55,19.382z
			 M424.04,24.731c-0.349,0.094-0.811,0.181-1.388,0.262c-2.896,0.349-4.787,0.858-5.673,1.528c-0.63,0.483-0.944,1.135-0.944,1.952
			c0,0.67,0.241,1.236,0.724,1.699c0.483,0.462,1.12,0.693,1.911,0.693c0.871,0,1.692-0.211,2.464-0.634
			c0.771-0.422,1.348-0.965,1.729-1.629c0.383-0.664,0.721-1.699,1.017-3.107L424.04,24.731z"/>
		<path fill="#DFC44A" d="M437.456,13.327h5.391l-0.865,4.144c2.012-3.098,4.19-4.646,6.537-4.646c0.832,0,1.723,0.209,2.675,0.623
			l-2.212,4.728c-0.523-0.188-1.08-0.281-1.67-0.281c-0.992,0-2.001,0.375-3.027,1.126c-1.025,0.752-1.827,1.753-2.403,3.007
			s-1.146,3.241-1.709,5.964l-1.408,6.697h-5.773L437.456,13.327z"/>
		<path fill="#DFC44A" d="M453.809,13.327h5.772l-4.466,21.36h-5.771L453.809,13.327z M455.498,5.201h5.772l-1.086,5.23h-5.772
			L455.498,5.201z"/>
		<path fill="#DFC44A" d="M465.333,13.327h5.472l-0.563,2.775c1.368-1.18,2.646-2.021,3.831-2.524
			c1.188-0.502,2.438-0.754,3.752-0.754c1.757,0,3.141,0.503,4.153,1.509s1.519,2.34,1.519,4.002c0,0.752-0.222,2.173-0.664,4.265
			l-2.514,12.088h-5.773l2.535-12.128c0.375-1.811,0.563-2.891,0.563-3.238c0-0.737-0.219-1.318-0.654-1.74s-1.043-0.634-1.82-0.634
			c-0.845,0-1.784,0.355-2.815,1.066c-1.033,0.711-1.845,1.649-2.435,2.815c-0.429,0.831-0.911,2.528-1.448,5.09l-1.83,8.769h-5.772
			L465.333,13.327z"/>
	</g>
	<g>
		<g>
			<path fill="#595757" d="M290.083,58.298c0,3.384-2.752,6.136-6.136,6.136c-3.386,0-6.137-2.752-6.137-6.136
				s2.751-6.138,6.137-6.138C287.331,52.16,290.083,54.914,290.083,58.298z M283.947,51.118c-3.959,0-7.18,3.221-7.18,7.18
				s3.221,7.179,7.18,7.179s7.179-3.22,7.179-7.179S287.906,51.118,283.947,51.118z"/>
		</g>
		<g>
			<path fill="#595757" d="M280.746,62.495v-8.395h3.727c0.749,0,1.318,0.076,1.708,0.227c0.39,0.153,0.699,0.419,0.935,0.801
				c0.232,0.381,0.348,0.806,0.348,1.267c0,0.597-0.192,1.098-0.579,1.507c-0.384,0.41-0.98,0.669-1.786,0.78
				c0.293,0.141,0.517,0.279,0.671,0.416c0.323,0.3,0.631,0.669,0.917,1.115l1.455,2.282h-1.389l-1.11-1.744
				c-0.325-0.503-0.592-0.888-0.802-1.154c-0.211-0.268-0.397-0.454-0.565-0.562c-0.166-0.107-0.333-0.182-0.507-0.223
				c-0.125-0.027-0.331-0.041-0.618-0.041h-1.289v3.724H280.746z M281.86,57.813h2.389c0.508,0,0.906-0.054,1.194-0.161
				c0.289-0.105,0.507-0.273,0.656-0.504c0.15-0.231,0.226-0.485,0.226-0.758c0-0.398-0.145-0.726-0.434-0.983
				c-0.289-0.256-0.747-0.386-1.373-0.386h-2.658V57.813z"/>
		</g>
	</g>
</g>
</svg>
